<svg width="215" height="322" viewBox="0 0 215 322" fill="none" xmlns="http://www.w3.org/2000/svg">
<path d="M103.062 306.372C153.001 306.372 193.485 267.947 193.485 220.547C193.485 173.148 153.001 134.723 103.062 134.723C53.1224 134.723 12.6387 173.148 12.6387 220.547C12.6387 267.947 53.1224 306.372 103.062 306.372Z" fill="white"/>
<path d="M103.038 307.318C52.6635 307.318 11.6758 268.392 11.6758 220.547C11.6758 172.702 52.6862 133.783 103.038 133.783C153.39 133.783 194.408 172.702 194.408 220.547C194.408 268.392 153.443 307.318 103.038 307.318ZM103.038 135.676C53.7015 135.676 13.5699 173.746 13.5699 220.547C13.5699 267.347 53.7242 305.425 103.038 305.425C152.352 305.425 192.514 267.347 192.514 220.547C192.514 173.746 152.398 135.676 103.038 135.676Z" fill="black"/>
<path d="M208.35 91.3591C208.304 107.359 203.328 122.957 194.099 136.032C186.188 147.258 175.891 156.597 163.945 163.381C147.428 172.773 128.732 177.663 109.729 177.562C93.1568 177.626 76.7868 173.926 61.8544 166.743C48.5128 160.354 36.8408 150.953 27.7611 139.28C17.2603 125.583 11.1387 109.107 11.1387 91.3818C11.1387 58.4678 32.2538 29.8696 63.2939 15.3547C77.8525 8.61438 93.7144 5.15083 109.759 5.20872C144.519 5.20872 175.082 20.9199 192.644 44.6646C202.569 58.1043 208.35 74.1411 208.35 91.3591Z" fill="white"/>
<path d="M109.728 178.486C93.0134 178.527 76.5055 174.795 61.4365 167.568C47.9577 161.109 36.1627 151.613 26.9795 139.825C15.9787 125.477 10.1602 108.713 10.1602 91.3666C10.1602 59.134 30.3585 29.6727 62.8836 14.4764C77.5673 7.69929 93.5538 4.20574 109.728 4.2395C143.654 4.2395 174.884 19.133 193.378 44.0816C203.787 58.1573 209.288 74.5121 209.288 91.359C209.231 107.541 204.207 123.317 194.893 136.554C186.879 147.883 176.471 157.313 164.406 164.176C147.748 173.648 128.893 178.582 109.728 178.486ZM109.728 6.13242C93.8164 6.09227 78.0881 9.52387 63.6412 16.1876C31.8208 31.0432 12.0542 59.8761 12.0542 91.359C12.0542 108.297 17.7364 124.674 28.4796 138.682C37.491 150.231 49.0566 159.538 62.2699 165.872C77.0799 172.97 93.3026 176.635 109.728 176.593C128.565 176.689 147.098 171.844 163.474 162.54C175.286 155.811 185.474 146.57 193.317 135.472C202.419 122.555 207.335 107.157 207.401 91.359C207.401 74.921 202.022 58.9599 191.855 45.1719C173.755 20.7381 143.056 6.13242 109.728 6.13242Z" fill="black"/>
<path d="M163.755 18.6183C167.073 13.5755 203.644 -10.2222 212.243 7.26077C218.872 20.7838 206.099 45.8157 199.97 56.4766C199.772 56.8204 199.477 57.0976 199.121 57.2726C198.765 57.4475 198.365 57.5123 197.971 57.4587C197.578 57.405 197.21 57.2353 196.914 56.9713C196.618 56.7073 196.408 56.361 196.31 55.9768C194.628 49.3592 191.961 32.8908 172.362 32.6637C167.914 32.6107 159.974 24.3879 163.755 18.6183Z" fill="white"/>
<path d="M198.227 58.4226C198.091 58.4302 197.954 58.4302 197.818 58.4226C197.236 58.3486 196.691 58.0997 196.254 57.7089C195.817 57.3182 195.509 56.804 195.371 56.2344C195.265 55.818 195.151 55.3637 195.037 54.8715C193.265 47.5194 189.969 33.8375 172.309 33.6709C169.278 33.6709 165.104 30.4756 163.05 26.6292C161.414 23.5551 161.376 20.5719 162.944 18.1641C165.475 14.3026 187.673 -0.765034 202.114 0.0981357C207.311 0.423717 210.986 2.71793 213.046 6.91263C219.91 20.9126 206.735 46.6108 200.75 57.0067C200.488 57.4412 200.118 57.8001 199.676 58.0484C199.234 58.2966 198.734 58.4256 198.227 58.4226ZM200.848 1.89262C187.272 1.89262 166.823 15.673 164.55 19.1409C163.035 21.4124 163.831 23.9564 164.747 25.6752C166.626 29.2036 170.263 31.7325 172.324 31.7325C191.439 31.9521 195.09 47.1257 196.848 54.4475C196.962 54.9245 197.068 55.3712 197.174 55.7801C197.224 55.9831 197.334 56.1664 197.49 56.3062C197.645 56.4461 197.839 56.5361 198.046 56.5646C198.253 56.5932 198.465 56.5589 198.652 56.4663C198.84 56.3737 198.995 56.227 199.098 56.0451C204.932 45.9067 217.797 20.9051 211.334 7.7228C209.599 4.17926 206.455 2.24092 201.992 1.96834C201.636 1.90019 201.242 1.89262 200.848 1.89262Z" fill="black"/>
<path d="M173.756 32.7094C173.756 32.7094 191.295 8.57099 213.85 12.8717L173.756 32.7094Z" fill="white"/>
<path d="M174.529 33.2696L173.014 32.1566C173.196 31.9067 191.197 7.57897 214.047 11.9327L213.653 13.7953C191.977 9.66117 174.696 33.0273 174.529 33.2696Z" fill="black"/>
<path d="M171 280.216C171 274.022 164.732 269 157 269C149.268 269 143 274.022 143 280.216V309.784C143 315.978 149.268 321 157 321C164.732 321 171 315.978 171 309.784V280.216Z" fill="white"/>
<path d="M156.963 322C152.999 321.988 149.202 320.703 146.399 318.425C143.596 316.146 142.015 313.06 142 309.838V280.193C142 276.959 143.58 273.858 146.393 271.571C149.206 269.285 153.022 268 157 268C160.978 268 164.794 269.285 167.607 271.571C170.42 273.858 172 276.959 172 280.193V309.838C171.985 313.07 170.394 316.166 167.575 318.446C164.756 320.726 160.939 322.004 156.963 322ZM156.963 269.878C153.604 269.882 150.385 270.968 148.011 272.899C145.638 274.83 144.303 277.448 144.301 280.177V309.823C144.301 312.552 145.635 315.17 148.009 317.1C150.384 319.031 153.604 320.115 156.963 320.115C160.321 320.115 163.541 319.031 165.916 317.1C168.291 315.17 169.625 312.552 169.625 309.823V280.177C169.622 277.448 168.288 274.83 165.914 272.899C163.54 270.968 160.321 269.882 156.963 269.878Z" fill="black"/>
<path d="M76 280.216C76 274.022 69.732 269 62 269C54.268 269 48 274.022 48 280.216V309.784C48 315.978 54.268 321 62 321C69.732 321 76 315.978 76 309.784V280.216Z" fill="white"/>
<path d="M61.9626 322C57.9988 321.988 54.2016 320.703 51.3988 318.425C48.5959 316.146 47.0148 313.06 47 309.838V280.193C47 278.591 47.388 277.006 48.1418 275.527C48.8956 274.047 50.0005 272.703 51.3934 271.571C52.7863 270.439 54.4399 269.541 56.2597 268.928C58.0796 268.315 60.0302 268 62 268C63.9698 268 65.9204 268.315 67.7403 268.928C69.5601 269.541 71.2137 270.439 72.6066 271.571C73.9995 272.703 75.1044 274.047 75.8582 275.527C76.612 277.006 77 278.591 77 280.193V309.838C76.9851 313.07 75.3937 316.166 72.5747 318.446C69.7557 320.726 65.9393 322.004 61.9626 322ZM61.9626 269.878C58.6043 269.882 55.3851 270.968 53.0113 272.899C50.6375 274.83 49.303 277.448 49.3005 280.177V309.823C49.3005 312.552 50.6345 315.17 53.0091 317.1C55.3837 319.031 58.6044 320.115 61.9626 320.115C65.3208 320.115 68.5414 319.031 70.916 317.1C73.2906 315.17 74.6247 312.552 74.6247 309.823V280.177C74.6222 277.448 73.2877 274.83 70.9139 272.899C68.5401 270.968 65.3209 269.882 61.9626 269.878Z" fill="black"/>
<path d="M55.1332 19.6858C51.8224 14.6355 15.2441 -9.15464 6.64497 8.32832C0.046021 21.8362 12.8121 46.8681 18.9413 57.5441C19.1387 57.888 19.4343 58.1652 19.7903 58.3401C20.1462 58.5151 20.5464 58.5799 20.9394 58.5262C21.3325 58.4725 21.7005 58.3028 21.9965 58.0388C22.2924 57.7748 22.5028 57.4286 22.6006 57.0444C24.2826 50.4267 26.9494 33.9508 46.5493 33.7312C50.9814 33.6555 58.9138 25.4251 55.1332 19.6858Z" fill="white"/>
<path d="M20.6698 59.4674C20.1482 59.4634 19.637 59.3211 19.1884 59.0551C18.7399 58.789 18.37 58.4087 18.1166 57.9531C12.1237 47.5951 -1.03631 21.8969 5.82024 7.89686C7.88099 3.70216 11.5555 1.40795 16.7528 1.08237C31.1932 0.196481 53.3918 15.2868 55.9222 19.1483C57.4905 21.5334 57.4375 24.5394 55.8162 27.6059C53.763 31.4599 49.6112 34.6172 46.558 34.6551C28.9203 34.852 25.6247 48.5415 23.8291 55.8558C23.7154 56.3403 23.6018 56.8022 23.4957 57.2187C23.3586 57.7887 23.051 58.3035 22.6138 58.6944C22.1766 59.0853 21.6307 59.3338 21.0486 59.4069L20.6698 59.4674ZM18.0408 2.93742C17.6468 2.93742 17.2832 2.93742 16.874 2.93742C12.404 3.21757 9.29775 5.15592 7.5249 8.69945C1.06233 21.912 13.9269 46.9439 19.7606 57.0521C19.8638 57.2339 20.0193 57.3806 20.2069 57.4733C20.3944 57.5659 20.6055 57.6001 20.8127 57.5716C21.0199 57.543 21.2139 57.453 21.3694 57.3132C21.5249 57.1733 21.6348 56.99 21.685 56.7871C21.7911 56.3782 21.8971 55.9315 22.0108 55.4545C23.7685 48.1554 27.4202 32.9818 46.5352 32.7395C48.6263 32.7395 52.2629 30.2257 54.1115 26.6822C55.0282 24.9558 55.8086 22.4269 54.3085 20.1478C52.0659 16.7178 31.6175 2.93742 18.0408 2.93742Z" fill="black"/>
<path d="M45.1328 33.7544C45.1328 33.7544 27.5937 9.61591 5.03906 13.909L45.1328 33.7544Z" fill="white"/>
<path d="M44.368 34.3142C44.1938 34.0719 26.9047 10.7133 5.22132 14.8398L4.86523 12.9772C27.7456 8.61594 45.7166 32.9513 45.8984 33.2011L44.368 34.3142Z" fill="black"/>
<path d="M169.006 129.945L136.882 125.849C118.82 123.547 100.539 123.547 82.4767 125.849L50.3532 129.945C44.0539 129.945 38.0126 127.444 33.5583 122.993C29.104 118.541 26.6016 112.503 26.6016 106.208V74.4069C26.6016 63.3447 31.8292 57.1359 43.3224 52.8579C46.9062 51.5505 50.6117 50.6044 54.3838 50.0337L70.8016 47.4442C95.8842 43.9581 121.326 43.9122 146.421 47.3079L172.741 51.4875C183.446 53.9558 192.788 61.3306 192.788 74.4447V106.246C192.777 112.54 190.266 118.572 185.807 123.017C181.347 127.461 175.304 129.953 169.006 129.945Z" fill="white"/>
<path d="M169.005 130.891H168.884L136.768 126.787C118.784 124.493 100.582 124.493 82.5977 126.787L50.353 130.891C43.805 130.883 37.5274 128.28 32.8972 123.653C28.2671 119.025 25.6623 112.752 25.6543 106.208V74.4067C25.6543 63.2006 30.8365 56.4921 42.9889 51.9718C46.6324 50.6444 50.3985 49.6806 54.2321 49.0946L70.6575 46.5051C95.8294 43.0276 121.357 42.9818 146.542 46.3688L172.862 50.5181C185.938 53.5467 193.704 62.4586 193.704 74.4067V106.208C193.698 112.752 191.094 119.027 186.463 123.655C181.833 128.283 175.554 130.885 169.005 130.891ZM109.683 123.176C118.818 123.182 127.943 123.768 137.003 124.932L169.066 129.021C175.099 128.995 180.877 126.583 185.136 122.313C189.395 118.042 191.789 112.26 191.795 106.23V74.4294C191.795 63.4202 184.575 55.1898 172.483 52.3958L146.254 48.2617C121.256 44.915 95.9181 44.9812 70.9378 48.4586L54.5503 51.0027C50.8339 51.5588 47.182 52.482 43.648 53.7587C32.2154 58.0367 27.5484 64.0259 27.5484 74.4445V106.246C27.5543 112.275 29.9485 118.057 34.2075 122.328C38.4665 126.598 44.2441 129.01 50.2772 129.036L82.3553 124.932C91.418 123.769 100.546 123.182 109.683 123.176Z" fill="black"/>
<path d="M168.498 124.743L136.374 120.647C118.313 118.337 100.031 118.337 81.9691 120.647L49.8457 124.743C46.7269 124.743 43.6387 124.129 40.7574 122.936C37.8762 121.743 35.2583 119.994 33.0534 117.79C30.8484 115.586 29.0996 112.969 27.9068 110.089C26.714 107.209 26.1006 104.123 26.1016 101.006V69.2427C26.1016 58.1805 31.3216 51.9718 42.8149 47.6938C46.3989 46.3873 50.1044 45.4412 53.8762 44.8695L70.3016 42.28C95.3814 38.7901 120.821 38.7443 145.913 42.1437L172.21 46.2854C182.908 48.7538 192.257 56.1286 192.257 69.2427V101.044C192.247 107.334 189.739 113.363 185.284 117.807C180.83 122.25 174.792 124.745 168.498 124.743Z" fill="black"/>
<path d="M168.497 125.122H168.452L136.374 121.018C118.342 118.723 100.091 118.723 82.0592 121.018L49.9357 125.122C43.5311 125.124 37.3876 122.585 32.8546 118.063C28.3216 113.541 25.7698 107.406 25.7598 101.006V69.2427C25.7598 58.3016 30.7904 51.7597 42.6852 47.3379C46.2847 46.026 50.0051 45.0724 53.792 44.4909L70.2099 41.9014C95.3415 38.4281 120.829 38.3822 145.973 41.7651L172.278 45.9144C185.036 48.8522 192.643 57.5748 192.643 69.2427V101.044C192.625 107.433 190.073 113.555 185.548 118.068C181.022 122.581 174.891 125.118 168.497 125.122ZM108 40.0237C95.4052 40.0104 82.8249 40.8884 70.3538 42.651L53.936 45.2405C50.1896 45.8085 46.5094 46.7495 42.9504 48.0496C31.245 52.4033 26.5174 58.5364 26.5174 69.2427V101.044C26.5354 107.223 28.9997 113.144 33.3719 117.514C37.7442 121.884 43.6691 124.346 49.8524 124.364L81.9228 120.268C100.017 117.959 118.332 117.959 136.427 120.268L168.527 124.364C174.72 124.352 180.656 121.887 185.033 117.508C189.41 113.13 191.872 107.195 191.878 101.006V69.2427C191.878 57.9534 184.491 49.511 172.126 46.6564L145.859 42.5147C133.306 40.8699 120.661 40.0378 108 40.0237Z" fill="black"/>
<path d="M102.281 95.5013C102.281 95.5013 110.266 93.987 115.009 96.2585C119.934 98.6133 112.554 105.92 112.554 105.92C112.554 105.92 108.008 111.038 103.781 105.708C101.273 102.528 100.682 100.824 100.682 100.824C100.682 100.824 98.4245 96.3342 102.281 95.5013Z" fill="white"/>
<path d="M136.434 105.147C136.291 105.148 136.151 105.106 136.033 105.026C130.312 101.414 122.569 102.217 122.494 102.217C122.395 102.228 122.294 102.22 122.198 102.193C122.103 102.166 122.013 102.12 121.935 102.058C121.857 101.996 121.792 101.919 121.743 101.832C121.695 101.745 121.664 101.649 121.653 101.55C121.631 101.352 121.69 101.153 121.814 100.997C121.939 100.841 122.121 100.74 122.319 100.718C122.66 100.68 130.653 99.8241 136.836 103.746C136.92 103.799 136.994 103.868 137.052 103.949C137.11 104.03 137.151 104.121 137.174 104.218C137.196 104.315 137.2 104.416 137.183 104.514C137.167 104.613 137.131 104.707 137.078 104.791C137.01 104.9 136.915 104.99 136.802 105.052C136.69 105.115 136.563 105.147 136.434 105.147Z" fill="white"/>
<path d="M122.372 97.7572C122.201 97.7562 122.035 97.6974 121.902 97.5902C121.769 97.4831 121.676 97.334 121.638 97.1672C121.6 97.0004 121.62 96.8257 121.694 96.6717C121.768 96.5176 121.893 96.3931 122.047 96.3186C125.764 94.784 129.872 94.4633 133.782 95.4024C133.879 95.4247 133.971 95.466 134.052 95.5237C134.133 95.5815 134.202 95.6546 134.255 95.739C134.308 95.8234 134.343 95.9174 134.36 96.0155C134.376 96.1137 134.373 96.2141 134.35 96.311C134.328 96.408 134.287 96.4996 134.229 96.5807C134.171 96.6617 134.098 96.7306 134.014 96.7833C133.929 96.8361 133.835 96.8716 133.737 96.888C133.639 96.9044 133.538 96.9013 133.441 96.8789C129.876 96.0413 126.139 96.3189 122.736 97.6739C122.625 97.7346 122.499 97.7634 122.372 97.7572Z" fill="white"/>
<path d="M131.14 110.546C130.998 110.546 130.859 110.507 130.738 110.432C128.018 108.67 125.014 107.389 121.859 106.646C121.759 106.628 121.664 106.59 121.58 106.535C121.495 106.48 121.422 106.409 121.364 106.325C121.307 106.242 121.266 106.148 121.245 106.049C121.224 105.951 121.223 105.849 121.241 105.749C121.26 105.65 121.298 105.555 121.353 105.47C121.408 105.385 121.479 105.312 121.562 105.255C121.646 105.197 121.74 105.157 121.839 105.136C121.938 105.115 122.04 105.114 122.139 105.132C125.481 105.891 128.664 107.231 131.541 109.092C131.678 109.18 131.783 109.31 131.84 109.462C131.897 109.615 131.903 109.781 131.858 109.938C131.813 110.094 131.719 110.232 131.59 110.33C131.46 110.429 131.303 110.483 131.14 110.485V110.546Z" fill="white"/>
<path d="M80.674 104.989C80.5112 104.987 80.3535 104.932 80.2241 104.834C80.0946 104.735 80.0004 104.598 79.9554 104.441C79.9103 104.285 79.9168 104.118 79.9739 103.966C80.031 103.814 80.1357 103.684 80.2724 103.596C86.4547 99.6886 94.4552 100.567 94.7886 100.567C94.8935 100.577 94.9953 100.608 95.0873 100.66C95.1793 100.711 95.2597 100.781 95.3231 100.865C95.3866 100.949 95.4318 101.045 95.4559 101.148C95.4799 101.25 95.4823 101.357 95.4629 101.46C95.4516 101.559 95.4209 101.655 95.3725 101.742C95.3241 101.829 95.2589 101.906 95.1808 101.968C95.1027 102.03 95.0131 102.076 94.9172 102.103C94.8213 102.13 94.7209 102.138 94.6219 102.127C94.5462 102.127 86.8183 101.301 81.0831 104.913C80.9565 104.976 80.8147 105.002 80.674 104.989Z" fill="white"/>
<path d="M94.7055 97.606C94.5924 97.6069 94.4807 97.581 94.3797 97.5302C90.9618 96.1794 87.2102 95.915 83.6365 96.7731C83.4356 96.8182 83.2249 96.7818 83.0508 96.6718C82.8768 96.5617 82.7536 96.3871 82.7084 96.1863C82.6632 95.9855 82.6997 95.7749 82.8098 95.601C82.9199 95.427 83.0946 95.3039 83.2956 95.2587C87.2138 94.3035 91.3346 94.6191 95.0615 96.1598C95.2155 96.2343 95.3398 96.3587 95.414 96.5128C95.4882 96.6669 95.508 96.8416 95.4703 97.0084C95.4325 97.1752 95.3393 97.3242 95.206 97.4314C95.0726 97.5385 94.9069 97.5974 94.7358 97.5984L94.7055 97.606Z" fill="white"/>
<path d="M85.9684 110.356C85.8396 110.357 85.7129 110.324 85.6003 110.262C85.4876 110.199 85.3926 110.109 85.3244 110C85.2715 109.916 85.2358 109.822 85.2194 109.724C85.2029 109.625 85.206 109.525 85.2286 109.428C85.2511 109.331 85.2926 109.239 85.3506 109.158C85.4087 109.077 85.4821 109.008 85.5668 108.955C88.4457 107.099 91.6279 105.761 94.969 105.003C95.17 104.966 95.3774 105.01 95.5458 105.126C95.7142 105.242 95.8296 105.419 95.8668 105.62C95.904 105.821 95.8598 106.028 95.744 106.197C95.6282 106.365 95.4503 106.48 95.2493 106.517C92.0982 107.243 89.0948 108.503 86.3699 110.243C86.2494 110.317 86.1102 110.357 85.9684 110.356Z" fill="white"/>
<path d="M69.1956 80.8877C69.0712 80.8871 68.948 80.8641 68.8319 80.8196C68.6008 80.721 68.4179 80.5354 68.3229 80.3029C68.2278 80.0705 68.2283 79.8099 68.3243 79.5778C68.991 77.9727 74.9838 63.8591 80.2191 62.7763C80.7611 62.6584 81.3243 62.6814 81.8549 62.8431C82.3855 63.0048 82.8657 63.2999 83.2496 63.7001C87.7499 68.0613 91.0532 79.2068 91.1895 79.6763C91.2373 79.7985 91.2592 79.9294 91.2537 80.0606C91.2481 80.1917 91.2154 80.3203 91.1575 80.4381C91.0995 80.556 91.0177 80.6605 90.9172 80.745C90.8167 80.8295 90.6997 80.8922 90.5737 80.9291C90.4476 80.966 90.3152 80.9763 90.185 80.9593C90.0547 80.9423 89.9294 80.8985 89.8171 80.8305C89.7047 80.7625 89.6077 80.6719 89.5322 80.5644C89.4568 80.457 89.4045 80.335 89.3788 80.2063C89.3788 80.1003 86.0755 69.076 81.9313 65.063C81.7713 64.883 81.5663 64.7489 81.3373 64.6744C81.1082 64.5998 80.8635 64.5876 80.6282 64.639C77.4158 65.2977 72.4685 74.6033 70.0971 80.3123C70.0215 80.4872 69.8953 80.6355 69.7346 80.7381C69.5739 80.8406 69.3862 80.8928 69.1956 80.8877Z" fill="white"/>
<path d="M126.767 80.8875C126.645 80.8868 126.524 80.8637 126.411 80.8193C126.178 80.7222 125.994 80.5372 125.897 80.3046C125.801 80.0719 125.8 79.8106 125.895 79.5776C126.562 77.9724 132.555 63.8588 137.79 62.7761C138.332 62.6574 138.896 62.68 139.426 62.8418C139.957 63.0036 140.437 63.2991 140.821 63.6998C145.321 68.0611 148.624 79.2066 148.768 79.676C148.803 79.7954 148.814 79.9204 148.801 80.0439C148.787 80.1675 148.749 80.2871 148.689 80.3961C148.63 80.5051 148.549 80.6012 148.452 80.6791C148.355 80.7569 148.244 80.8148 148.124 80.8496C148.005 80.8844 147.88 80.8954 147.756 80.8819C147.633 80.8684 147.513 80.8307 147.404 80.7709C147.295 80.7111 147.198 80.6305 147.121 80.5336C147.043 80.4367 146.985 80.3254 146.95 80.206C146.912 80.1 143.647 69.0757 139.502 65.0627C139.342 64.8828 139.137 64.7486 138.908 64.6741C138.679 64.5996 138.435 64.5874 138.199 64.6387C134.995 65.2975 130.04 74.603 127.668 80.312C127.593 80.487 127.466 80.6353 127.306 80.7378C127.145 80.8404 126.957 80.8925 126.767 80.8875Z" fill="white"/>
<path d="M172.279 200.989C168.824 188.913 180.741 178.153 192.295 183.105C195.981 184.749 199.062 187.502 201.107 190.98C210.107 205.366 208.107 217.246 208.107 217.246C208.107 217.246 190.303 233.442 182.742 220.842C178.802 214.278 174.165 207.607 172.279 200.989Z" fill="white"/>
<path d="M190.924 226.589C190.371 226.591 189.819 226.55 189.272 226.468C187.741 226.235 186.284 225.65 185.017 224.759C183.749 223.869 182.706 222.696 181.969 221.334C181.226 220.103 180.469 218.868 179.696 217.632C176.385 212.279 172.968 206.751 171.362 201.254C170.515 198.349 170.515 195.263 171.362 192.358C172.208 189.453 173.867 186.85 176.143 184.854C178.359 182.886 181.093 181.593 184.021 181.129C186.949 180.665 189.95 181.048 192.667 182.234C196.528 183.959 199.758 186.84 201.91 190.48C211.001 205.01 209.13 216.905 209.039 217.405L208.986 217.73L208.743 217.95C208.349 218.321 199.144 226.589 190.924 226.589ZM173.226 200.732C174.741 205.979 178.075 211.4 181.317 216.632C182.075 217.874 182.833 219.116 183.59 220.35C185.105 222.833 187.03 224.219 189.545 224.59C196.599 225.627 205.63 218.169 207.251 216.761C207.471 214.8 208.221 204.071 200.341 191.472C198.377 188.165 195.433 185.551 191.917 183.991C189.535 182.924 186.896 182.57 184.317 182.974C181.739 183.377 179.334 184.519 177.393 186.262C175.385 188.021 173.922 190.317 173.177 192.88C172.432 195.442 172.436 198.164 173.188 200.724L173.226 200.732Z" fill="black"/>
<path d="M189.776 239.717C201.781 237.203 209.919 227.557 207.954 218.172C205.989 208.787 194.664 203.216 182.66 205.73C170.655 208.244 162.517 217.889 164.482 227.275C166.447 236.66 177.772 242.23 189.776 239.717Z" fill="white"/>
<path d="M189.969 240.636C177.351 243.278 165.403 237.394 163.334 227.515C161.266 217.637 169.849 207.446 182.466 204.804C195.083 202.162 207.033 208.053 209.102 217.932C211.17 227.811 202.586 237.994 189.969 240.636ZM182.854 206.657C171.504 209.033 163.776 218.179 165.63 227.035C167.484 235.891 178.231 241.16 189.581 238.783C200.931 236.407 208.661 227.269 206.806 218.413C204.952 209.557 194.204 204.28 182.854 206.657Z" fill="black"/>
<path d="M38.1403 200.263C41.5951 188.148 29.67 177.427 18.1238 182.378C14.4378 184.022 11.3574 186.775 9.31254 190.253C0.30433 204.647 2.27417 216.549 2.27417 216.549C2.27417 216.549 20.0785 232.745 27.6396 220.153C31.6171 213.521 36.2463 206.88 38.1403 200.263Z" fill="white"/>
<path d="M19.5245 225.863C11.2739 225.863 2.09905 217.595 1.6672 217.224L1.42476 217.004L1.37172 216.678C1.28838 216.179 -0.582961 204.284 8.50859 189.754C10.6603 186.114 13.8902 183.233 17.7517 181.508C20.4674 180.322 23.4663 179.938 26.3934 180.403C29.3205 180.867 32.0532 182.16 34.268 184.128C36.549 186.12 38.2114 188.723 39.0586 191.629C39.9058 194.536 39.9023 197.624 39.0486 200.528C37.4803 206.025 34.0558 211.56 30.7147 216.913C29.9571 218.147 29.1994 219.381 28.4418 220.608C27.7122 221.961 26.6807 223.128 25.4273 224.018C24.1739 224.908 22.7323 225.498 21.214 225.742C20.6548 225.826 20.09 225.866 19.5245 225.863ZM3.19761 216.02C4.82651 217.42 13.8575 224.879 20.911 223.841C23.4263 223.47 25.3658 222.085 26.8584 219.601C27.616 218.367 28.3736 217.125 29.1313 215.883C32.3663 210.644 35.7226 205.222 37.2227 199.983C37.9759 197.423 37.9794 194.701 37.2329 192.14C36.4863 189.578 35.021 187.284 33.0103 185.529C31.0703 183.784 28.6646 182.64 26.086 182.237C23.5075 181.834 20.8672 182.188 18.4866 183.257C14.9848 184.833 12.0575 187.454 10.1072 190.761C2.2733 203.352 2.9779 214.081 3.19761 216.05V216.02Z" fill="black"/>
<path d="M20.3239 241.42C31.9492 243.448 42.6866 237.561 44.3064 228.272C45.9263 218.983 37.8153 209.809 26.1901 207.782C14.5648 205.755 3.82745 211.642 2.20757 220.931C0.587686 230.219 8.69867 239.393 20.3239 241.42Z" fill="white"/>
<path d="M20.1678 242.329C7.94902 240.199 -0.606632 230.514 1.09845 220.736C2.80354 210.959 14.1336 204.734 26.3524 206.865C38.5713 208.995 47.1345 218.689 45.4307 228.46C43.7269 238.23 32.3955 244.462 20.1678 242.329ZM26.0327 208.698C15.0411 206.782 4.85024 212.358 3.32167 221.124C1.79311 229.889 9.49602 238.579 20.4876 240.496C31.4792 242.412 41.6547 236.871 43.1897 228.069C44.7247 219.267 37.0687 210.623 26.0327 208.698Z" fill="black"/>
</svg>
