<svg width="379" height="233" viewBox="0 0 379 233" fill="none" xmlns="http://www.w3.org/2000/svg">
<g clip-path="url(#clip0_140_1504)">
<path d="M249.785 230.659C257.628 230.659 263.986 222.38 263.986 212.168C263.986 201.956 257.628 193.677 249.785 193.677C241.942 193.677 235.584 201.956 235.584 212.168C235.584 222.38 241.942 230.659 249.785 230.659Z" fill="black"/>
<path d="M249.783 230.929C241.806 230.929 235.312 222.508 235.312 212.168C235.312 201.828 241.79 193.402 249.783 193.402C257.777 193.402 264.259 201.822 264.259 212.168C264.259 222.514 257.766 230.929 249.783 230.929ZM249.783 193.942C242.103 193.942 235.852 202.119 235.852 212.168C235.852 222.217 242.103 230.389 249.783 230.389C257.464 230.389 263.72 222.212 263.72 212.168C263.72 202.124 257.469 193.942 249.783 193.942Z" fill="black"/>
<path d="M257.718 230.659C265.561 230.659 271.919 222.38 271.919 212.168C271.919 201.956 265.561 193.677 257.718 193.677C249.876 193.677 243.518 201.956 243.518 212.168C243.518 222.38 249.876 230.659 257.718 230.659Z" fill="white"/>
<path d="M257.708 231.333C249.503 231.333 242.832 222.735 242.832 212.168C242.832 201.601 249.514 192.998 257.708 192.998C265.901 192.998 272.583 201.596 272.583 212.168C272.583 222.74 265.917 231.333 257.708 231.333ZM257.708 194.346C250.248 194.346 244.181 202.34 244.181 212.146C244.181 221.953 250.248 229.947 257.708 229.947C265.167 229.947 271.234 221.953 271.234 212.146C271.234 202.34 265.178 194.346 257.708 194.346Z" fill="black"/>
<path d="M241.466 140.422C240.761 138.853 239.627 137.514 238.195 136.559C236.763 135.605 235.09 135.074 233.369 135.028C227 134.861 214.651 136.485 196.127 147.111C196.127 147.111 186.022 152.931 187.949 160.741C189.876 168.552 197.665 168.428 210.867 162.845C217.381 160.068 224.275 158.283 231.318 157.548C234.338 157.281 237.148 155.896 239.199 153.664C241.784 150.773 244.067 146.269 241.466 140.422Z" fill="white"/>
<path d="M196.019 167.516C194.424 167.564 192.84 167.237 191.394 166.562C189.326 165.526 187.939 163.622 187.27 160.903C185.246 152.694 195.334 146.776 195.76 146.528C213.907 136.129 226.235 134.176 233.376 134.354C235.225 134.404 237.023 134.974 238.563 135.999C240.103 137.023 241.322 138.461 242.082 140.147V140.147C244.867 146.41 242.308 151.2 239.674 154.112C237.513 156.473 234.546 157.939 231.357 158.223C224.381 158.952 217.553 160.719 211.1 163.465C204.672 166.184 199.738 167.516 196.019 167.516ZM232.539 135.692C226.515 135.692 214.414 137.391 196.435 147.693C196.338 147.753 186.8 153.357 188.576 160.58C189.159 162.931 190.276 164.517 191.998 165.353C195.436 167.079 201.514 166.055 210.576 162.225C217.156 159.426 224.116 157.625 231.227 156.879C234.083 156.623 236.738 155.307 238.67 153.19C242.119 149.382 242.848 145.169 240.829 140.676C240.174 139.222 239.121 137.982 237.792 137.098C236.463 136.215 234.912 135.724 233.316 135.681L232.539 135.692Z" fill="black"/>
<path d="M321.091 207.179C321.091 207.179 335.432 201.682 344.1 185.705C350.955 173.099 352.488 165.165 366.44 156.54C380.393 147.915 377.932 142.181 377.932 142.181C377.932 142.181 375.303 132.137 356.029 142.661C346.086 148.093 337.537 161.281 330.714 176.104C324.966 188.591 311.354 193.478 311.354 193.478C311.354 193.478 311.267 207.551 321.091 207.179Z" fill="white"/>
<path d="M320.707 207.858C319.62 207.884 318.538 207.692 317.526 207.295C316.514 206.897 315.592 206.302 314.813 205.544C310.673 201.542 310.673 193.807 310.678 193.478V193.008L311.126 192.846C311.256 192.798 324.544 187.9 330.098 175.828C338.168 158.298 346.782 146.943 355.704 142.067C364.07 137.504 370.466 136.134 374.725 137.957C375.616 138.31 376.42 138.851 377.083 139.543C377.746 140.234 378.253 141.06 378.568 141.965C378.805 142.607 380.533 148.621 366.796 157.111C355.78 163.918 352.644 170.246 348.304 178.995C347.225 181.217 346.064 183.509 344.693 186.007C335.998 202.016 321.484 207.729 321.333 207.783L321.23 207.826H321.117L320.707 207.858ZM312.038 193.941C312.103 195.619 312.578 201.493 315.752 204.578C316.439 205.24 317.255 205.753 318.149 206.084C319.044 206.416 319.997 206.559 320.95 206.504C322.24 205.965 335.436 200.242 343.506 185.387C344.866 182.889 345.999 180.607 347.095 178.374C351.532 169.42 354.743 162.953 366.083 155.946C379.14 147.855 377.326 142.461 377.305 142.418L377.278 142.326C377.017 141.604 376.602 140.947 376.062 140.401C375.523 139.854 374.871 139.431 374.153 139.16C371.497 138.032 366.256 137.822 356.341 143.232C347.689 147.984 339.269 159.123 331.324 176.384C326.056 187.841 314.521 192.954 312.038 193.941Z" fill="black"/>
<path d="M277.591 222.611C313.169 222.611 342.01 195.237 342.01 161.47C342.01 127.702 313.169 100.329 277.591 100.329C242.013 100.329 213.172 127.702 213.172 161.47C213.172 195.237 242.013 222.611 277.591 222.611Z" fill="white"/>
<path d="M277.592 223.28C241.699 223.28 212.498 195.555 212.498 161.47C212.498 127.385 241.699 99.6543 277.592 99.6543C313.485 99.6543 342.686 127.385 342.686 161.47C342.686 195.555 313.485 223.28 277.592 223.28ZM277.592 101.003C242.443 101.003 213.847 128.129 213.847 161.47C213.847 194.81 242.454 221.931 277.592 221.931C312.73 221.931 341.336 194.81 341.336 161.47C341.336 128.129 312.762 101.003 277.592 101.003Z" fill="black"/>
<path d="M254.616 17.8271C252.915 13.8787 230.181 -7.30362 222.004 3.91594C215.689 12.5949 221.578 31.7275 224.568 39.9534C224.663 40.2202 224.837 40.4524 225.066 40.6198C225.295 40.7872 225.568 40.8823 225.852 40.8928C226.135 40.9032 226.415 40.8286 226.656 40.6784C226.897 40.5283 227.087 40.3096 227.202 40.0505C229.193 35.6112 233.085 24.4078 246.87 26.6301C249.985 27.1372 256.564 22.3365 254.616 17.8271Z" fill="white"/>
<path d="M225.911 41.5661H225.83C225.413 41.5511 225.009 41.4116 224.671 41.1655C224.334 40.9194 224.078 40.578 223.936 40.1852C221.016 32.1535 214.922 12.5031 221.458 3.50589C223.418 0.808885 226.278 -0.345435 229.965 0.0645108C240.22 1.21883 253.93 14.5636 255.236 17.5627C256.04 19.429 255.646 21.5327 254.119 23.4961C252.208 25.945 248.91 27.6603 246.762 27.3043C234.347 25.2815 230.359 34.4837 228.216 39.4301C228.076 39.7537 227.941 40.0612 227.816 40.3363C227.655 40.7054 227.388 41.0188 227.049 41.2374C226.71 41.4561 226.314 41.5704 225.911 41.5661V41.5661ZM228.61 1.34829C227.432 1.29917 226.261 1.54481 225.202 2.0629C224.144 2.58099 223.232 3.35512 222.549 4.315C216.395 12.7728 222.354 31.8946 225.204 39.7213C225.254 39.8614 225.345 39.9833 225.465 40.0714C225.585 40.1595 225.728 40.2096 225.877 40.2154C226.025 40.2212 226.172 40.1824 226.299 40.104C226.425 40.0255 226.525 39.911 226.586 39.7753C226.71 39.5002 226.84 39.2035 226.98 38.8799C229.101 33.9821 233.532 23.7766 246.978 25.9666C248.446 26.2039 251.296 24.8878 253.055 22.6547C253.913 21.5759 254.766 19.8821 254 18.0967C252.791 15.3026 239.427 2.48643 229.819 1.41841C229.412 1.37446 229.003 1.35106 228.594 1.34829H228.61Z" fill="black"/>
<path d="M245.866 26.4897C245.866 26.4897 236.528 7.3949 220.174 7.64302Z" fill="white"/>
<path d="M245.26 26.7864C245.168 26.5976 235.917 8.10149 220.178 8.31725V6.96875H220.464C236.861 6.96875 246.372 25.9988 246.458 26.193L245.26 26.7864Z" fill="black"/>
<path d="M350.82 69.4372C350.787 80.8358 347.242 91.9478 340.667 101.262C335.031 109.258 327.698 115.911 319.19 120.745C307.422 127.431 294.103 130.913 280.566 130.843C268.758 130.89 257.094 128.256 246.454 123.14C236.95 118.585 228.636 111.885 222.165 103.571C214.689 93.8128 210.328 82.0754 210.328 69.4534C210.307 45.9894 225.322 25.6108 247.452 15.2705C257.826 10.4686 269.128 8.00117 280.56 8.0425C305.324 8.0425 327.092 19.2405 339.604 36.1561C346.707 45.7413 350.82 57.1766 350.82 69.4372Z" fill="white"/>
<path d="M280.561 131.5C268.656 131.532 256.897 128.875 246.163 123.728C236.56 119.125 228.156 112.36 221.61 103.964C213.773 93.7153 209.633 81.7999 209.633 69.4422C209.633 46.4852 224.017 25.4971 247.172 14.6659C257.639 9.83813 269.034 7.34941 280.561 7.37322C304.731 7.37322 326.98 17.9833 340.155 35.7565C347.577 45.7894 351.49 57.4351 351.49 69.4422C351.449 80.9686 347.869 92.2048 341.235 101.634C335.532 109.704 328.125 116.423 319.537 121.316C307.661 128.062 294.221 131.574 280.561 131.5V131.5ZM280.561 8.71633C269.231 8.69247 258.032 11.1389 247.745 15.885C225.075 26.4896 210.982 47.0085 210.982 69.4368C210.982 81.4978 215.025 93.1705 222.679 103.144C229.097 111.373 237.337 118.004 246.751 122.514C257.302 127.573 268.86 130.184 280.561 130.152C293.982 130.222 307.185 126.77 318.851 120.141C327.267 115.351 334.527 108.771 340.117 100.868C346.817 91.4337 350.327 80.1091 350.139 68.5425C349.951 56.976 346.073 45.7715 339.07 36.5603C326.176 19.1214 304.305 8.71633 280.561 8.71633V8.71633Z" fill="black"/>
<path d="M335.145 107.384C335.145 107.319 334.848 100.96 330.287 93.0357C326.104 85.7214 317.306 75.516 299.268 68.5361L299.753 67.2793C318.224 74.4318 327.232 84.9123 331.539 92.4424C336.224 100.636 336.505 107.06 336.516 107.33L335.145 107.384Z" fill="black"/>
<path d="M210.512 48.5138C210.269 41.5717 214.291 36.0428 221.124 34.6997C235.514 31.8679 276.405 26.8838 321.231 40.919C321.231 40.919 336.247 42.8231 332.334 60.4022C330.035 70.7587 327.163 80.8293 325.933 84.9126C324.895 88.4594 322.764 91.5889 319.844 93.8559C316.606 96.3156 311.721 98.2412 304.623 97.0923C290.001 94.7783 248.937 87.3831 224.74 89.6594C218.846 90.1988 215.359 89.3034 213.103 86.7574C210.847 84.2114 210.21 81.2123 210.318 77.7548L210.512 48.5138Z" fill="white"/>
<path d="M308.677 98.133C307.283 98.1286 305.892 98.0149 304.515 97.7932L299.447 96.9679C282.267 94.1577 246.525 88.3105 224.784 90.3603C218.765 90.932 214.998 89.9665 212.585 87.2371C210.388 84.7613 209.476 81.8431 209.627 77.7329L209.838 48.5458C209.584 41.1075 213.989 35.4222 221.005 34.0413C229.258 32.4231 272.865 25.0819 321.399 40.2606C322.095 40.3577 327.725 41.3394 331.147 46.194C333.7 49.8242 334.331 54.6681 333.02 60.5799C330.321 72.6733 326.975 83.8928 326.597 85.1335C325.516 88.8131 323.295 92.0556 320.255 94.395C316.922 96.8984 312.846 98.2143 308.677 98.133V98.133ZM234.969 88.5856C256.559 88.5856 284.928 93.2245 299.663 95.6356L304.726 96.4609C310.544 97.3833 315.494 96.326 319.434 93.3324C322.253 91.1503 324.302 88.1272 325.285 84.7019C325.658 83.4667 328.999 72.2957 331.676 60.2401C332.906 54.722 332.35 50.2503 330.029 46.9384C326.791 42.3535 321.199 41.5822 321.145 41.5444H321.026C272.789 26.4412 229.452 33.7231 221.254 35.3413C214.901 36.6143 210.95 41.7656 211.187 48.4919L210.993 77.7329C210.863 81.5087 211.668 84.1194 213.616 86.3148C215.748 88.7259 219.051 89.5512 224.681 89.0118C227.849 88.7205 231.315 88.5856 234.969 88.5856Z" fill="black"/>
<path d="M327.578 25.0174C330.531 21.8889 359.138 9.72 362.986 23.0486C365.96 33.3566 353.902 49.3391 348.283 56.0546C348.102 56.273 347.86 56.4323 347.588 56.5119C347.316 56.5916 347.026 56.5879 346.756 56.5014C346.486 56.4149 346.248 56.2496 346.073 56.0267C345.898 55.8038 345.793 55.5336 345.773 55.2509C345.417 50.3963 345.584 38.5295 331.864 35.9349C328.76 35.347 324.21 28.5883 327.578 25.0174Z" fill="white"/>
<path d="M347.193 57.2411C346.975 57.2418 346.758 57.2072 346.551 57.1386C346.151 57.0147 345.799 56.7725 345.541 56.444C345.283 56.1155 345.13 55.7163 345.104 55.2992C345.077 54.9918 345.061 54.6628 345.039 54.3068C344.705 48.9127 344.089 38.9176 331.74 36.5928C329.581 36.1936 327.082 33.4643 326.116 30.5083C325.349 28.1512 325.695 26.0367 327.087 24.5749C329.343 22.18 346.777 14.3263 356.806 16.7482C360.411 17.622 362.711 19.6826 363.634 22.8866C366.71 33.556 354.285 49.9538 348.801 56.5075C348.603 56.739 348.356 56.9246 348.078 57.0512C347.8 57.1779 347.498 57.2427 347.193 57.2411V57.2411ZM352.526 17.6166C342.972 17.6166 329.889 23.5501 328.07 25.4811C326.736 26.8944 326.99 28.7661 327.4 30.0876C328.286 32.7846 330.525 34.9962 331.988 35.2713C345.369 37.7849 346.054 48.8858 346.383 54.2204C346.383 54.5711 346.427 54.9001 346.448 55.2022C346.456 55.3504 346.51 55.4926 346.601 55.6094C346.693 55.7261 346.819 55.8118 346.961 55.8548C347.103 55.9027 347.256 55.9061 347.399 55.8646C347.543 55.8232 347.671 55.7388 347.765 55.6229C353.114 49.231 365.237 33.2863 362.338 23.2588C361.556 20.5618 359.591 18.8087 356.493 18.059C355.192 17.7573 353.861 17.6088 352.526 17.6166V17.6166Z" fill="black"/>
<path d="M332.852 36.1396C332.852 36.1396 348.143 21.3707 363.434 27.1747Z" fill="white"/>
<path d="M333.322 36.6251L332.383 35.6541C332.539 35.5031 348.165 20.6588 363.688 26.5436L363.208 27.8058C348.489 22.2284 333.473 36.4794 333.322 36.6251Z" fill="black"/>
<path d="M316.54 139.942C318.156 139.343 319.908 139.214 321.595 139.568C323.281 139.922 324.833 140.745 326.072 141.943C330.654 146.366 338.146 156.307 343.549 177.004C343.549 177.004 346.469 188.283 339.544 192.383C332.619 196.482 327.259 190.845 321.986 177.517C319.406 170.925 315.851 164.757 311.439 159.22C309.516 156.879 308.536 153.906 308.692 150.881C308.897 146.965 310.516 142.181 316.54 139.942Z" fill="white"/>
<path d="M335.237 194.346C334.452 194.346 333.673 194.214 332.932 193.958C328.841 192.561 325.154 187.404 321.333 177.738C318.775 171.212 315.255 165.105 310.889 159.62C308.853 157.15 307.821 154.006 307.996 150.811C308.228 146.89 309.852 141.711 316.275 139.311C318.015 138.67 319.9 138.532 321.714 138.914C323.528 139.295 325.198 140.181 326.531 141.469C331.669 146.437 338.907 156.599 344.191 176.816C344.316 177.301 347.155 188.639 339.873 192.949C338.483 193.827 336.881 194.309 335.237 194.346V194.346ZM319.665 140.045C318.669 140.047 317.681 140.23 316.75 140.584C312.141 142.305 309.647 145.778 309.34 150.903C309.188 153.762 310.115 156.573 311.936 158.783C316.388 164.375 319.98 170.6 322.591 177.253C326.207 186.422 329.731 191.45 333.386 192.696C335.21 193.316 337.11 193.019 339.188 191.789C345.595 188.014 342.912 177.263 342.885 177.155C337.407 156.189 329.699 146.41 325.613 142.44C324.018 140.897 321.884 140.038 319.665 140.045V140.045Z" fill="black"/>
<path d="M378.132 141.862C378.132 141.862 381.37 149.247 368.416 155.25C368.379 150.191 367.132 144.462 361.664 139.947C375.444 134.537 378.132 141.862 378.132 141.862Z" fill="black"/>
<path d="M367.898 156.092V155.256C367.844 148.832 365.702 143.956 361.346 140.363L360.639 139.781L361.491 139.441C367.213 137.197 371.79 136.809 375.093 138.292C376.666 138.925 377.936 140.138 378.639 141.679C378.844 142.219 381.516 149.77 368.665 155.742L367.898 156.092ZM362.722 140.126C366.689 143.707 368.735 148.395 368.956 154.404C380.34 148.799 377.754 142.354 377.635 142.078C377.021 140.8 375.942 139.802 374.618 139.29C371.785 138.006 367.682 138.308 362.722 140.126Z" fill="black"/>
<path d="M206.118 62.387C206.526 54.7331 208.261 47.208 211.246 40.1475C213.551 34.7858 216.476 30.0715 220.173 29.3594C228.96 27.628 246.664 25.2762 269.328 26.9106C285.733 28.0939 301.945 31.1709 317.641 36.0804C317.641 36.0804 332.517 38.6533 328.604 56.2324C325.527 70.0789 322.127 82.3341 322.127 82.3341C322.127 82.3341 319.131 94.7835 303.354 92.2861C288.732 89.972 243.404 82.6955 219.212 84.9826C213.318 85.522 207.527 80.8669 206.739 76.4438C206.134 73.0348 205.692 71.3303 205.816 67.8673L206.118 62.387Z" fill="black"/>
<path d="M307.311 92.8524C305.966 92.8482 304.623 92.7364 303.295 92.518L302.653 92.4209C287.934 90.0799 243.032 82.9706 219.218 85.2253C213.13 85.8025 207.247 80.9101 206.459 76.4708C206.372 75.9853 206.286 75.5322 206.21 75.1007C205.676 72.7193 205.447 70.2795 205.53 67.8404L205.849 62.3816C206.256 54.6958 207.998 47.1393 210.998 40.0504C213.891 33.3133 216.876 29.7262 220.12 29.0898C226.829 27.7682 245.051 24.8824 269.35 26.6355C285.773 27.8157 302.003 30.8928 317.717 35.8053C317.717 35.8053 323.655 36.8841 327.098 41.9868C329.565 45.6656 330.159 50.4716 328.869 56.2702C325.824 69.9602 322.392 82.264 322.392 82.388C322.392 82.5121 319.688 92.8524 307.311 92.8524ZM229.76 84.222C254.529 84.222 289.947 89.8372 302.739 91.8653L303.382 91.9678C318.721 94.4005 321.733 82.7171 321.847 82.2208C321.884 82.086 325.301 69.8146 328.324 56.1192C329.581 50.4716 329.014 45.8112 326.639 42.2619C323.342 37.348 317.636 36.3285 317.577 36.2962C301.891 31.3844 285.687 28.3073 269.291 27.1263C245.062 25.3787 226.894 28.2537 220.206 29.5698C217.167 30.2063 214.312 33.6909 211.495 40.2554C208.519 47.286 206.792 54.7804 206.389 62.4032L206.07 67.8512C205.991 70.245 206.216 72.6392 206.739 74.9767C206.82 75.4082 206.901 75.8613 206.988 76.3467C207.738 80.581 213.335 85.2253 219.17 84.6859C222.365 84.3784 225.938 84.2436 229.76 84.2436V84.222Z" fill="black"/>
<path d="M293.698 56.1835C294.685 50.1052 293.018 44.7781 289.975 44.2851C286.932 43.7921 283.666 48.3198 282.68 54.3981C281.694 60.4764 283.361 65.8035 286.404 66.2965C289.446 66.7895 292.712 62.2618 293.698 56.1835Z" fill="white"/>
<path d="M246.589 51.2855C247.575 45.2073 245.908 39.8802 242.866 39.3871C239.823 38.8941 236.557 43.4219 235.571 49.5002C234.585 55.5784 236.252 60.9055 239.294 61.3985C242.337 61.8916 245.603 57.3638 246.589 51.2855Z" fill="white"/>
<path d="M254.825 69.7929C254.825 69.7929 260.843 69.2535 264.081 71.1037C267.439 73.0563 260.659 77.7167 260.659 77.7167C260.659 77.7167 257.022 81.1905 254.944 76.9831C253 73.0455 253.389 73.4716 253.389 73.4716C253.389 73.4716 252.094 70.4078 254.825 69.7929Z" fill="white"/>
<path d="M279.126 78.6553C279.009 78.6553 278.895 78.6174 278.802 78.5474C274.932 75.6454 269.399 75.791 269.345 75.791C269.274 75.7932 269.204 75.7813 269.137 75.7562C269.071 75.731 269.01 75.6931 268.959 75.6445C268.907 75.5959 268.866 75.5376 268.837 75.473C268.807 75.4084 268.791 75.3386 268.789 75.2678C268.787 75.197 268.799 75.1264 268.824 75.0602C268.849 74.9939 268.887 74.9333 268.936 74.8817C268.985 74.8301 269.043 74.7886 269.108 74.7595C269.172 74.7304 269.242 74.7144 269.313 74.7122C269.556 74.7122 275.277 74.5558 279.449 77.6843C279.506 77.7268 279.554 77.7801 279.59 77.841C279.626 77.902 279.65 77.9695 279.66 78.0396C279.67 78.1097 279.666 78.1811 279.648 78.2497C279.631 78.3183 279.6 78.3828 279.557 78.4395C279.507 78.5065 279.442 78.5609 279.367 78.5983C279.292 78.6358 279.209 78.6553 279.126 78.6553Z" fill="white"/>
<path d="M277.592 72.6572C277.539 72.6654 277.484 72.6654 277.43 72.6572C274.943 71.8381 272.261 71.8154 269.76 72.5925C269.627 72.644 269.478 72.6403 269.347 72.5821C269.216 72.5239 269.113 72.4161 269.062 72.2824C269.01 72.1486 269.014 71.9999 269.072 71.8689C269.13 71.7379 269.238 71.6353 269.372 71.5838C272.1 70.7134 275.035 70.7285 277.754 71.627C277.897 71.6484 278.026 71.7259 278.112 71.8422C278.198 71.9585 278.234 72.1042 278.213 72.2473C278.192 72.3904 278.114 72.519 277.998 72.605C277.881 72.691 277.735 72.7273 277.592 72.7058V72.6572Z" fill="white"/>
<path d="M275.05 82.1614C274.935 82.1602 274.824 82.1224 274.732 82.0535C272.898 80.6568 270.839 79.5841 268.643 78.8818C268.575 78.8631 268.511 78.8311 268.455 78.7876C268.399 78.7441 268.352 78.69 268.317 78.6284C268.282 78.5667 268.259 78.4988 268.25 78.4284C268.241 78.3581 268.247 78.2867 268.265 78.2183C268.303 78.0814 268.394 77.965 268.517 77.8943C268.64 77.8236 268.787 77.8044 268.924 77.8408C271.263 78.5684 273.456 79.7023 275.401 81.1904C275.458 81.2329 275.505 81.2862 275.542 81.3471C275.578 81.4081 275.601 81.4756 275.611 81.5457C275.621 81.6158 275.618 81.6872 275.6 81.7558C275.582 81.8244 275.551 81.8889 275.509 81.9456C275.456 82.0164 275.386 82.0731 275.306 82.1107C275.226 82.1483 275.138 82.1657 275.05 82.1614V82.1614Z" fill="white"/>
<path d="M241.084 74.3886C240.995 74.3887 240.908 74.3671 240.83 74.3258C240.752 74.2844 240.685 74.2244 240.636 74.1512C240.596 74.0925 240.568 74.0265 240.554 73.9569C240.54 73.8874 240.539 73.8158 240.553 73.7461C240.566 73.6765 240.594 73.6102 240.633 73.5511C240.672 73.4919 240.722 73.4411 240.781 73.4015C244.56 70.8285 249.207 71.7563 249.417 71.7833C249.557 71.8131 249.679 71.8967 249.756 72.0159C249.834 72.1352 249.862 72.2803 249.833 72.4198C249.819 72.4892 249.791 72.5551 249.751 72.6139C249.712 72.6726 249.661 72.7229 249.602 72.762C249.543 72.8011 249.476 72.8281 249.407 72.8416C249.337 72.855 249.266 72.8547 249.196 72.8405C249.153 72.8405 244.819 71.9721 241.402 74.2861C241.309 74.3531 241.198 74.389 241.084 74.3886V74.3886Z" fill="white"/>
<path d="M249.526 69.6688C249.418 69.669 249.313 69.6371 249.224 69.5771C247.412 68.5202 245.269 68.185 243.222 68.6385C243.151 68.6534 243.078 68.6542 243.006 68.6408C242.935 68.6274 242.867 68.6002 242.807 68.5606C242.746 68.5211 242.694 68.4699 242.653 68.4102C242.612 68.3504 242.583 68.2832 242.568 68.2124C242.554 68.1416 242.553 68.0685 242.566 67.9974C242.579 67.9262 242.607 67.8584 242.646 67.7978C242.686 67.7372 242.737 67.685 242.797 67.6441C242.857 67.6033 242.924 67.5746 242.995 67.5597C245.328 67.0207 247.78 67.4074 249.833 68.6385C249.951 68.7202 250.031 68.845 250.056 68.9855C250.081 69.1261 250.05 69.2709 249.968 69.3883C249.925 69.4688 249.861 69.5368 249.783 69.5858C249.706 69.6349 249.617 69.6635 249.526 69.6688Z" fill="white"/>
<path d="M243.863 78.402C243.776 78.4013 243.69 78.3793 243.613 78.3379C243.535 78.2966 243.47 78.2371 243.421 78.1647C243.34 78.0467 243.309 77.9014 243.335 77.7608C243.362 77.6202 243.443 77.4958 243.561 77.4149C245.262 76.2165 247.188 75.3743 249.223 74.9391C249.366 74.9169 249.512 74.9525 249.629 75.0379C249.746 75.1234 249.824 75.2518 249.846 75.3949C249.868 75.5379 249.833 75.6839 249.747 75.8008C249.662 75.9176 249.533 75.9957 249.39 76.0179C247.515 76.4398 245.74 77.2241 244.165 78.3265C244.074 78.3808 243.969 78.4071 243.863 78.402Z" fill="white"/>
<path d="M299.91 232.326C307.753 232.326 314.111 224.047 314.111 213.835C314.111 203.623 307.753 195.344 299.91 195.344C292.067 195.344 285.709 203.623 285.709 213.835C285.709 224.047 292.067 232.326 299.91 232.326Z" fill="black"/>
<path d="M299.91 232.595C291.933 232.595 285.439 224.18 285.439 213.835C285.439 203.489 291.916 195.069 299.91 195.069C307.904 195.069 314.381 203.489 314.381 213.835C314.381 224.18 307.904 232.595 299.91 232.595ZM299.91 195.608C292.23 195.608 285.979 203.786 285.979 213.835C285.979 223.884 292.23 232.056 299.91 232.056C307.591 232.056 313.841 223.878 313.841 213.835C313.841 203.791 307.596 195.608 299.91 195.608Z" fill="black"/>
<path d="M307.845 232.326C315.688 232.326 322.046 224.047 322.046 213.835C322.046 203.623 315.688 195.344 307.845 195.344C300.002 195.344 293.645 203.623 293.645 213.835C293.645 224.047 300.002 232.326 307.845 232.326Z" fill="white"/>
<path d="M307.846 233.021C299.642 233.021 292.965 224.423 292.965 213.856C292.965 203.289 299.642 194.686 307.846 194.686C316.05 194.686 322.721 203.284 322.721 213.856C322.721 224.429 316.045 233.021 307.846 233.021ZM307.846 196.035C300.386 196.035 294.314 204.028 294.314 213.835C294.314 223.641 300.386 231.635 307.846 231.635C315.305 231.635 321.372 223.641 321.372 213.835C321.372 204.028 315.305 196.013 307.846 196.013V196.035Z" fill="black"/>
</g>
<g clip-path="url(#clip1_140_1504)">
<path d="M52.4292 107.173C54.7081 109.725 54.0939 114.429 50.4898 117.686C46.8857 120.943 42.1664 121.057 39.866 118.499C37.5656 115.941 38.2498 111.243 41.8324 107.986C45.4149 104.729 50.1558 104.626 52.4292 107.173Z" fill="#FFE463"/>
<path d="M44.2468 120.824C43.3609 120.851 42.4793 120.69 41.6595 120.351C40.8398 120.012 40.1004 119.503 39.4898 118.857C36.9039 115.963 37.7928 110.901 41.4831 107.579C45.1734 104.258 50.2536 103.916 52.8395 106.81C55.4254 109.709 54.5365 114.771 50.8624 118.087C49.1786 119.656 47.0194 120.611 44.7316 120.797L44.2468 120.824ZM48.1095 105.921C45.9023 105.993 43.7964 106.87 42.1834 108.387C38.951 111.308 38.0999 115.681 40.2871 118.141C40.851 118.718 41.5361 119.161 42.2921 119.436C43.0481 119.712 43.8559 119.814 44.6562 119.735C46.7048 119.552 48.6328 118.682 50.1297 117.263C53.3621 114.337 54.2187 109.969 52.0314 107.509C51.5266 106.98 50.916 106.565 50.2399 106.292C49.5638 106.018 48.8377 105.892 48.1095 105.921V105.921Z" fill="#726014"/>
<path d="M62.8759 110.527C65.1547 113.074 64.5459 117.784 60.9364 121.041C57.3269 124.297 52.613 124.4 50.3396 121.848C48.0661 119.296 48.6695 114.592 52.279 111.335C55.8885 108.078 60.6024 107.975 62.8759 110.527Z" fill="#FFE463"/>
<path d="M54.6982 124.178C53.8115 124.205 52.929 124.044 52.1084 123.705C51.2878 123.366 50.5475 122.857 49.9358 122.211C47.3553 119.312 48.2442 114.256 51.9183 110.934C55.5925 107.612 60.6943 107.265 63.2802 110.164C65.8661 113.063 64.9772 118.12 61.2976 121.441C59.6153 123.009 57.4582 123.964 55.1723 124.151L54.6982 124.178ZM58.5555 109.27C56.347 109.341 54.24 110.219 52.6294 111.741C49.3971 114.662 48.5405 119.035 50.7277 121.496C51.29 122.075 51.9748 122.519 52.7313 122.794C53.4878 123.07 54.2963 123.171 55.0968 123.089C57.1409 122.916 59.0673 122.055 60.565 120.645C63.7973 117.724 64.6539 113.351 62.4667 110.89C61.9659 110.357 61.3583 109.937 60.6841 109.658C60.0098 109.378 59.2843 109.246 58.5555 109.27V109.27Z" fill="#726014"/>
<path d="M59.5462 102.702C61.8196 105.254 61.2108 109.958 57.6067 113.215C54.0026 116.472 49.2833 116.58 47.0045 114.012C44.7257 111.443 45.3398 106.755 48.9439 103.499C52.548 100.242 57.2673 100.155 59.5462 102.702Z" fill="#FFE463"/>
<path d="M51.3626 116.353C50.4771 116.381 49.5956 116.221 48.7759 115.883C47.9561 115.545 47.2166 115.036 46.6056 114.391C44.0197 111.492 44.9086 106.43 48.5882 103.108C52.2677 99.7865 57.3587 99.445 59.9446 102.344C62.5305 105.238 61.6416 110.3 57.9675 113.622C56.2837 115.191 54.1245 116.145 51.8367 116.331L51.3626 116.353ZM55.2253 101.45C53.018 101.521 50.9117 102.398 49.2993 103.916C46.0669 106.837 45.2103 111.21 47.403 113.67C47.9639 114.249 48.6478 114.694 49.4035 114.97C50.1591 115.245 50.967 115.346 51.7667 115.264C53.8119 115.089 55.7395 114.228 57.2402 112.819C60.4726 109.899 61.3292 105.525 59.1419 103.065C58.6401 102.532 58.0314 102.113 57.3562 101.834C56.681 101.556 55.9546 101.425 55.2253 101.45V101.45Z" fill="#726014"/>
<path d="M98.4208 102.702C100.7 105.254 100.091 109.958 96.4814 113.215C92.8719 116.472 88.158 116.58 85.8845 114.028C83.6111 111.476 84.2144 106.772 87.8239 103.515C91.4334 100.258 96.1473 100.155 98.4208 102.702Z" fill="#FFE463"/>
<path d="M90.2376 116.353C89.3522 116.38 88.4709 116.22 87.6513 115.882C86.8316 115.544 86.092 115.036 85.4806 114.391C82.8947 111.492 83.7836 106.43 87.4632 103.108C91.1427 99.7865 96.2391 99.445 98.825 102.344C101.411 105.238 100.522 110.3 96.8425 113.622C95.1601 115.189 93.003 116.144 90.7171 116.331L90.2376 116.353ZM94.1003 101.45C91.8928 101.52 89.7862 102.397 88.1743 103.916C84.9419 106.837 84.0853 111.21 86.2726 113.67C86.8344 114.25 87.5192 114.694 88.2757 114.97C89.0323 115.246 89.8411 115.346 90.6417 115.264C92.6857 115.091 94.6122 114.23 96.1098 112.819C99.3422 109.899 100.199 105.525 98.0115 103.065C97.5103 102.533 96.9025 102.114 96.2282 101.835C95.554 101.557 94.8287 101.426 94.1003 101.45V101.45Z" fill="#726014"/>
<path d="M66.2099 107.173C68.4833 109.725 67.8746 114.429 64.2705 117.686C60.6664 120.943 55.9471 121.046 53.6682 118.499C51.3894 115.952 52.0036 111.243 55.6131 107.986C59.2226 104.729 63.9365 104.626 66.2099 107.173Z" fill="#FFE463"/>
<path d="M58.0267 120.824C57.1408 120.851 56.2592 120.69 55.4395 120.351C54.6197 120.012 53.8804 119.503 53.2697 118.857C50.6838 115.963 51.5727 110.901 55.2522 107.579C58.9318 104.258 64.0228 103.916 66.6087 106.81C69.1946 109.709 68.3057 114.771 64.6315 118.087C62.9478 119.656 60.7886 120.611 58.5008 120.797L58.0267 120.824ZM61.8894 105.921C59.6822 105.993 57.5763 106.87 55.9634 108.387C52.731 111.308 51.8798 115.681 54.067 118.141C54.6303 118.717 55.3145 119.159 56.0695 119.435C56.8246 119.711 57.6313 119.813 58.4307 119.735C60.4812 119.554 62.4113 118.683 63.9096 117.263C67.142 114.337 67.9986 109.969 65.8114 107.509C65.3065 106.98 64.6959 106.565 64.0198 106.292C63.3437 106.018 62.6176 105.892 61.8894 105.921V105.921Z" fill="#726014"/>
<path d="M74.5166 97.6299C75.6857 100.849 73.3853 104.989 68.833 106.669C64.2808 108.349 59.8632 106.669 58.6941 103.455C57.5251 100.242 59.8255 96.0963 64.3777 94.4218C68.93 92.7472 73.3476 94.4163 74.5166 97.6299Z" fill="#FFE463"/>
<path d="M65.2304 107.872C64.2441 107.878 63.2634 107.722 62.3266 107.411C61.3984 107.138 60.5436 106.658 59.8261 106.006C59.1087 105.353 58.5472 104.546 58.1838 103.645C56.8531 99.9871 59.5468 95.6192 64.1853 93.8905C68.8237 92.1618 73.6885 93.7659 75.0191 97.4238C76.3498 101.082 73.6562 105.444 69.0123 107.178C67.8014 107.629 66.5216 107.864 65.2304 107.872V107.872ZM67.9941 94.3241C66.8226 94.3316 65.6613 94.5443 64.5624 94.9527C60.4788 96.4538 58.0976 100.198 59.1751 103.293C59.4859 104.039 59.9588 104.705 60.5592 105.244C61.1595 105.782 61.8721 106.178 62.6445 106.403C64.6063 107.005 66.7121 106.927 68.6244 106.181C72.708 104.675 75.0892 100.935 74.0117 97.8411C73.2036 95.5867 70.7955 94.3024 67.9941 94.3024V94.3241Z" fill="#726014"/>
<path d="M124.253 110.267C123.02 113.47 125.239 117.648 129.759 119.431C134.279 121.214 138.724 119.621 139.957 116.429C141.191 113.237 138.993 109.037 134.457 107.271C129.921 105.504 125.493 107.075 124.253 110.267Z" fill="#FFE463"/>
<path d="M133.541 120.699C132.178 120.691 130.828 120.428 129.56 119.924C127.405 119.121 125.581 117.611 124.383 115.638C123.867 114.815 123.543 113.886 123.434 112.919C123.325 111.953 123.434 110.974 123.753 110.056V110.056C125.159 106.431 130.05 104.94 134.651 106.745C136.807 107.545 138.632 109.051 139.834 111.021C140.349 111.843 140.673 112.771 140.781 113.737C140.889 114.703 140.779 115.68 140.459 116.597C140.079 117.491 139.504 118.287 138.775 118.925C138.046 119.563 137.184 120.027 136.251 120.282C135.374 120.556 134.46 120.697 133.541 120.699V120.699ZM124.76 110.468C124.498 111.232 124.41 112.046 124.503 112.849C124.596 113.652 124.868 114.424 125.299 115.107C126.406 116.837 128.029 118.171 129.935 118.917C131.841 119.664 133.933 119.785 135.912 119.263C136.689 119.056 137.41 118.675 138.021 118.149C138.632 117.622 139.117 116.964 139.441 116.223C139.701 115.458 139.788 114.643 139.695 113.84C139.601 113.036 139.331 112.263 138.902 111.579C137.821 109.828 136.188 108.492 134.263 107.785C130.207 106.198 125.945 107.406 124.76 110.495V110.468Z" fill="#726014"/>
<path d="M76.2098 102.702C78.4833 105.254 77.8745 109.958 74.265 113.215C70.6555 116.472 65.9416 116.58 63.6682 114.012C61.3947 111.443 62.0035 106.755 65.6076 103.499C69.2117 100.242 73.931 100.155 76.2098 102.702Z" fill="#FFE463"/>
<path d="M68.0251 116.353C67.1395 116.381 66.258 116.221 65.4383 115.883C64.6185 115.545 63.879 115.036 63.2681 114.391C60.6822 111.492 61.5711 106.43 65.2452 103.108C68.9193 99.7865 74.0211 99.445 76.607 102.344C79.1929 105.238 78.304 110.3 74.6245 113.622C72.9422 115.189 70.785 116.144 68.4991 116.331L68.0251 116.353ZM71.8824 101.45C69.675 101.521 67.5687 102.398 65.9563 103.916C62.7239 106.837 61.8674 111.21 64.0546 113.67C64.6168 114.248 65.301 114.69 66.0564 114.965C66.8118 115.24 67.6191 115.34 68.4183 115.258C70.4635 115.083 72.3911 114.223 73.8918 112.814C77.1242 109.893 77.9754 105.52 75.7882 103.06C75.2871 102.529 74.6799 102.111 74.0067 101.834C73.3335 101.556 72.6095 101.426 71.8824 101.45V101.45Z" fill="#726014"/>
<path d="M86.0834 109.346C84.4672 112.364 79.8611 113.378 75.5943 111.069C71.3276 108.761 69.6359 104.328 71.2468 101.315C72.8576 98.3016 77.4745 97.2828 81.7412 99.5913C86.008 101.9 87.6996 106.327 86.0834 109.346Z" fill="#FFE463"/>
<path d="M80.3674 112.879C78.6083 112.859 76.8814 112.401 75.3411 111.546C70.9881 109.189 68.941 104.501 70.7726 101.055C72.6043 97.6081 77.6415 96.7519 81.9944 99.1092C84.0354 100.167 85.6634 101.885 86.6167 103.986C87.0278 104.866 87.236 105.828 87.2258 106.8C87.2155 107.773 86.987 108.73 86.5574 109.601C86.0723 110.442 85.4038 111.161 84.6022 111.705C83.8006 112.248 82.8868 112.602 81.9298 112.738C81.4141 112.832 80.8913 112.879 80.3674 112.879V112.879ZM76.9303 98.8383C74.6569 98.8383 72.669 99.7812 71.7208 101.548C70.1693 104.453 72.0225 108.501 75.8475 110.576C77.6357 111.592 79.7114 111.974 81.7412 111.66C82.5375 111.551 83.299 111.262 83.9688 110.816C84.6386 110.369 85.1994 109.776 85.6093 109.08C85.9586 108.352 86.1401 107.554 86.1401 106.745C86.1401 105.936 85.9586 105.138 85.6093 104.409C84.7493 102.539 83.2906 101.012 81.4664 100.074C80.0785 99.2928 78.5204 98.8684 76.9303 98.8383V98.8383Z" fill="#726014"/>
<path d="M80.8743 109.861C80.8743 109.975 80.8258 110.202 80.4649 110.527C79.9608 110.946 79.3885 111.275 78.7732 111.497C74.7348 112.887 70.38 113.055 66.2477 111.98C65.6178 111.806 65.0233 111.521 64.4915 111.14C64.109 110.847 64.0389 110.598 64.0336 110.511C64.0282 110.424 64.082 110.17 64.4376 109.845C64.9432 109.428 65.5151 109.1 66.1292 108.875C70.1677 107.485 74.5225 107.318 78.6547 108.392C79.285 108.567 79.8808 108.85 80.4164 109.227C80.8096 109.525 80.8689 109.747 80.8743 109.861Z" fill="#FFE463"/>
<path d="M71.5643 113.221C69.7129 113.251 67.867 113.008 66.0854 112.5C65.3936 112.304 64.7409 111.989 64.1568 111.568C63.978 111.454 63.826 111.303 63.7115 111.124C63.597 110.945 63.5228 110.743 63.4941 110.533C63.5077 110.321 63.5667 110.114 63.6671 109.927C63.7675 109.74 63.907 109.577 64.076 109.449C64.6275 108.984 65.2544 108.617 65.9292 108.365C70.0831 106.931 74.5646 106.758 78.8156 107.867C79.5087 108.063 80.1629 108.379 80.7497 108.799C80.929 108.912 81.0814 109.063 81.1959 109.242C81.3104 109.421 81.3843 109.623 81.4123 109.834C81.3988 110.046 81.3398 110.253 81.2393 110.44C81.1389 110.627 80.9994 110.79 80.8305 110.918C80.2784 111.382 79.6517 111.749 78.9773 112.001C76.9199 112.752 74.7543 113.158 72.5664 113.204C72.2324 113.215 71.893 113.221 71.5643 113.221ZM64.5608 110.511C64.6282 110.597 64.706 110.673 64.7925 110.739C65.2855 111.078 65.8319 111.331 66.4087 111.487C70.423 112.521 74.65 112.357 78.5732 111.015C79.1298 110.819 79.6477 110.525 80.1032 110.148C80.1869 110.078 80.2595 109.996 80.3187 109.904C80.2514 109.819 80.1735 109.742 80.087 109.677C79.6042 109.337 79.0665 109.084 78.4978 108.929C74.4817 107.894 70.253 108.058 66.3279 109.4C65.7733 109.598 65.2574 109.891 64.8033 110.267C64.7224 110.332 64.65 110.407 64.5878 110.489L64.5608 110.511Z" fill="#726014"/>
<path d="M89.5909 105.298C89.6452 105.433 89.6681 105.579 89.6578 105.725C89.6475 105.87 89.6044 106.012 89.5316 106.138C89.2339 106.729 88.8043 107.243 88.2764 107.639C86.4918 108.974 84.4608 109.937 82.3019 110.473C80.0005 111.14 77.6032 111.41 75.2122 111.27C74.4089 111.222 73.6172 111.054 72.8633 110.771C72.5269 110.671 72.2319 110.464 72.0229 110.181C71.9657 110.046 71.9412 109.899 71.9515 109.753C71.9618 109.607 72.0066 109.466 72.0821 109.341C72.3799 108.75 72.8095 108.236 73.3374 107.84C75.1207 106.503 77.1522 105.539 79.3119 105.005C81.6138 104.341 84.0107 104.071 86.4016 104.209C87.2032 104.256 87.9932 104.424 88.7451 104.707C89.0835 104.806 89.3805 105.014 89.5909 105.298V105.298Z" fill="#FFE463"/>
<path d="M76.4621 111.844C76.015 111.844 75.584 111.844 75.1638 111.79C74.3063 111.738 73.4617 111.555 72.6587 111.248C72.2082 111.102 71.8182 110.811 71.5489 110.419C71.4515 110.212 71.4042 109.985 71.4108 109.756C71.4173 109.527 71.4776 109.303 71.5866 109.102C71.9217 108.436 72.4024 107.854 72.9927 107.401C74.8451 106.022 76.9536 105.03 79.1935 104.485C81.5556 103.798 84.0173 103.523 86.4717 103.672C87.331 103.724 88.1774 103.907 88.9822 104.214C89.423 104.362 89.8021 104.654 90.0597 105.043C90.1596 105.25 90.2084 105.477 90.2018 105.706C90.1953 105.936 90.1336 106.16 90.022 106.36C89.6902 107.024 89.2109 107.603 88.6213 108.051C86.7732 109.44 84.6663 110.441 82.4259 110.994C80.4838 111.54 78.4786 111.826 76.4621 111.844ZM72.497 109.904C72.6538 110.068 72.8508 110.188 73.0681 110.251C73.7706 110.512 74.5077 110.668 75.2553 110.712C77.5822 110.852 79.9158 110.594 82.1565 109.948C84.2405 109.432 86.2042 108.512 87.9371 107.238C88.3905 106.893 88.7591 106.448 89.0145 105.938C89.0761 105.827 89.1041 105.701 89.0953 105.574C88.9348 105.412 88.7367 105.293 88.5189 105.228C87.8286 104.963 87.1016 104.808 86.364 104.767C84.0362 104.631 81.7025 104.895 79.4628 105.547C77.3776 106.059 75.4133 106.98 73.6823 108.257C73.2354 108.609 72.8681 109.052 72.6048 109.558C72.5439 109.668 72.5176 109.795 72.5294 109.921L72.497 109.904Z" fill="#726014"/>
<path d="M108.474 112.993C108.474 113.107 108.582 113.318 109.013 113.578C109.58 113.907 110.2 114.134 110.844 114.25C112.936 114.627 115.074 114.656 117.175 114.337C119.287 114.094 121.345 113.505 123.268 112.592C123.868 112.317 124.415 111.937 124.884 111.47C125.207 111.113 125.239 110.88 125.229 110.771C125.218 110.663 125.121 110.441 124.69 110.181C124.113 109.853 123.484 109.628 122.831 109.514C120.739 109.135 118.598 109.106 116.496 109.427C114.384 109.67 112.326 110.258 110.403 111.167C109.804 111.447 109.257 111.828 108.787 112.294C108.49 112.652 108.458 112.879 108.474 112.993Z" fill="#FFE463"/>
<path d="M114.028 115.096C112.913 115.105 111.799 115 110.704 114.781C109.997 114.653 109.317 114.401 108.695 114.039C108.506 113.942 108.34 113.804 108.21 113.636C108.08 113.467 107.988 113.272 107.941 113.064V113.064C107.932 112.85 107.97 112.637 108.053 112.44C108.136 112.243 108.261 112.068 108.42 111.926C108.926 111.413 109.517 110.993 110.166 110.685C114.17 108.872 118.615 108.28 122.95 108.983C123.656 109.111 124.334 109.362 124.954 109.725C125.143 109.821 125.31 109.958 125.441 110.125C125.572 110.293 125.665 110.488 125.713 110.695C125.722 110.909 125.683 111.122 125.6 111.318C125.517 111.515 125.392 111.691 125.234 111.833C124.731 112.349 124.14 112.769 123.489 113.074C121.511 114.017 119.392 114.625 117.218 114.874C116.161 115.017 115.095 115.092 114.028 115.096V115.096ZM109.024 112.928C109.1 113.005 109.185 113.072 109.277 113.129C109.788 113.425 110.348 113.627 110.931 113.725C115.025 114.375 119.219 113.81 122.998 112.099C123.536 111.855 124.027 111.517 124.447 111.102C124.525 111.027 124.588 110.939 124.636 110.842C124.564 110.763 124.48 110.695 124.388 110.641C123.876 110.344 123.316 110.141 122.734 110.04C118.64 109.395 114.448 109.96 110.667 111.665C110.131 111.914 109.642 112.255 109.223 112.673C109.145 112.749 109.078 112.834 109.024 112.928V112.928Z" fill="#726014"/>
<path d="M90.8471 105.785C90.7932 105.888 90.6316 106.051 90.1575 106.154C89.5139 106.265 88.8563 106.265 88.2127 106.154C86.1241 105.763 84.1132 105.031 82.2597 103.986C80.3711 103.008 78.6534 101.727 77.1741 100.193C76.7278 99.7147 76.3637 99.1653 76.0966 98.5671C75.9188 98.1173 75.9727 97.8897 76.0266 97.7868C76.0804 97.6838 76.2367 97.5212 76.7108 97.4237C77.3557 97.3191 78.0138 97.3283 78.6556 97.4508C80.745 97.8389 82.7563 98.5713 84.6086 99.6184C86.4983 100.595 88.2163 101.877 89.6942 103.412C90.1422 103.889 90.5065 104.438 90.7716 105.038C90.9494 105.46 90.9009 105.688 90.8471 105.785Z" fill="#FFE463"/>
<path d="M89.3707 106.767C88.9557 106.764 88.5415 106.73 88.1317 106.664C85.9819 106.26 83.9126 105.504 82.0063 104.426C80.0618 103.418 78.2947 102.096 76.7752 100.513C76.2767 99.9909 75.872 99.3858 75.5792 98.7246C75.4811 98.5358 75.4263 98.3273 75.4188 98.1144C75.4114 97.9015 75.4515 97.6897 75.5361 97.4944C75.6523 97.3166 75.8064 97.167 75.9872 97.0564C76.1679 96.9458 76.3708 96.877 76.5813 96.855C77.2941 96.7287 78.0234 96.7287 78.7362 96.855C80.8836 97.2635 82.9495 98.0252 84.8508 99.1093C86.794 100.119 88.5594 101.443 90.0765 103.027C90.5725 103.545 90.977 104.145 91.2725 104.799C91.37 104.988 91.4249 105.196 91.4333 105.409C91.4416 105.622 91.4033 105.834 91.321 106.03C91.2033 106.208 91.0483 106.358 90.8668 106.469C90.6853 106.581 90.4817 106.651 90.2704 106.674C89.9743 106.735 89.6729 106.766 89.3707 106.767V106.767ZM76.5005 98.0147C76.5115 98.1229 76.5388 98.2289 76.5813 98.329C76.8276 98.8689 77.1648 99.3621 77.5779 99.7867C79.0143 101.275 80.6808 102.519 82.5127 103.472C84.3138 104.486 86.2657 105.201 88.2933 105.591C88.8725 105.703 89.4666 105.714 90.0495 105.623C90.1561 105.603 90.2594 105.568 90.3566 105.52C90.3433 105.413 90.3142 105.309 90.2704 105.211C90.0272 104.671 89.6917 104.177 89.2792 103.754C86.3424 100.811 82.6171 98.7921 78.5584 97.9442C77.979 97.8329 77.3847 97.8237 76.8021 97.9171C76.6969 97.9324 76.5949 97.9654 76.5005 98.0147V98.0147Z" fill="#726014"/>
<path d="M73.7422 93.4193C73.8148 93.734 74.0085 94.0069 74.2809 94.178C74.8275 94.5864 75.4506 94.8795 76.1126 95.0396C78.193 95.5251 80.3518 95.5639 82.4481 95.1534C84.6059 94.8223 86.6759 94.0594 88.5357 92.9099C89.1586 92.5298 89.7065 92.0375 90.1519 91.4576C90.3721 91.2079 90.4947 90.8863 90.4967 90.5526C90.43 90.2441 90.2464 89.9739 89.9849 89.7993C89.4396 89.3888 88.8161 89.0955 88.1532 88.9377C86.0747 88.4524 83.9177 88.4136 81.8232 88.8239C79.662 89.1552 77.5885 89.918 75.7247 91.0674C75.1125 91.4515 74.5741 91.9435 74.1355 92.5197C73.8984 92.7604 73.7583 93.0809 73.7422 93.4193Z" fill="#FFE463"/>
<path d="M79.2956 95.9661C78.1635 95.9806 77.0347 95.8421 75.9393 95.5543C75.2042 95.3748 74.5131 95.0466 73.9083 94.5897C73.7214 94.4609 73.5628 94.2949 73.4423 94.1019C73.3218 93.9089 73.2421 93.6931 73.2079 93.4679C73.1939 93.0057 73.3492 92.5544 73.6443 92.1998C74.1224 91.5695 74.7101 91.0315 75.379 90.612C77.3036 89.4192 79.4472 88.6286 81.6821 88.2872C83.8549 87.8584 86.0934 87.899 88.2493 88.4064C88.9839 88.5853 89.6737 88.9156 90.2749 89.3764C90.4615 89.5048 90.6203 89.6699 90.7416 89.8618C90.8629 90.0537 90.9443 90.2683 90.9806 90.4928C91.0002 90.9657 90.8447 91.4291 90.5443 91.7934C90.0647 92.4223 89.4772 92.9601 88.8096 93.3812C86.8846 94.5731 84.7411 95.3637 82.5064 95.706C81.4453 95.883 80.3712 95.9701 79.2956 95.9661V95.9661ZM74.28 93.3595C74.28 93.3595 74.3069 93.5167 74.5978 93.7551C75.0789 94.1172 75.6291 94.3755 76.214 94.5138C78.22 94.9704 80.2984 95.0037 82.3178 94.6113C84.4019 94.2868 86.4014 93.55 88.2008 92.4437C88.761 92.0993 89.254 91.6549 89.6554 91.1322C89.7885 90.9802 89.873 90.7914 89.8978 90.5903C89.8978 90.5903 89.8978 90.4386 89.5799 90.1947C89.0997 89.8312 88.5492 89.5728 87.9637 89.436C85.9656 88.9859 83.8962 88.9582 81.8869 89.3548C79.8025 89.6783 77.8029 90.4151 76.0039 91.5224C75.4422 91.8647 74.9489 92.3095 74.5493 92.8338C74.2746 93.1807 74.2746 93.3541 74.28 93.3595Z" fill="#726014"/>
<path d="M111.313 108.772C111.421 109.568 112.202 110.397 113.883 111.004C115.918 111.627 118.067 111.781 120.17 111.454C122.284 111.218 124.318 110.506 126.123 109.373C127.588 108.371 128.127 107.341 128.019 106.544C127.911 105.748 127.13 104.919 125.455 104.312C123.411 103.734 121.273 103.58 119.169 103.859C117.064 104.139 115.039 104.846 113.215 105.937C111.744 106.967 111.211 107.975 111.313 108.772Z" fill="#FFE463"/>
<path d="M117.896 112.148C116.473 112.17 115.057 111.955 113.704 111.513C111.361 110.701 110.865 109.492 110.779 108.842C110.693 108.192 110.86 106.896 112.934 105.498C114.827 104.357 116.932 103.618 119.119 103.326C121.307 103.034 123.53 103.196 125.653 103.802C127.997 104.615 128.492 105.823 128.573 106.474C128.654 107.124 128.498 108.419 126.418 109.823C124.546 111.005 122.431 111.746 120.234 111.99C119.459 112.095 118.678 112.148 117.896 112.148V112.148ZM121.419 104.257C120.698 104.259 119.978 104.308 119.264 104.404C117.234 104.635 115.28 105.316 113.543 106.398C112.411 107.173 111.786 108.024 111.878 108.706C111.97 109.389 112.788 110.045 114.081 110.495C116.045 111.047 118.1 111.193 120.121 110.923C122.142 110.654 124.089 109.976 125.842 108.929C126.979 108.154 127.598 107.303 127.512 106.62C127.426 105.937 126.601 105.281 125.303 104.832C124.049 104.427 122.736 104.233 121.419 104.257V104.257Z" fill="#726014"/>
<path d="M84.0419 110.338C84.1443 111.129 84.9308 111.963 86.6063 112.565C88.6408 113.192 90.7903 113.348 92.8932 113.02C95.0076 112.784 97.0422 112.073 98.8462 110.939C100.312 109.937 100.85 108.901 100.743 108.11C100.635 107.319 99.859 106.485 98.1782 105.878C96.135 105.3 93.9963 105.146 91.8921 105.425C89.7879 105.705 87.7622 106.412 85.9382 107.503C84.4675 108.511 83.9288 109.541 84.0419 110.338Z" fill="#FFE463"/>
<path d="M90.6148 113.714C89.1927 113.733 87.777 113.519 86.4235 113.08C84.08 112.261 83.5844 111.053 83.4982 110.408C83.4173 109.758 83.579 108.463 85.6531 107.059C87.5462 105.919 89.6513 105.18 91.8389 104.89C94.0264 104.599 96.25 104.762 98.3725 105.368C100.716 106.181 101.212 107.39 101.298 108.04C101.384 108.69 101.217 109.985 99.1429 111.383C97.27 112.565 95.1558 113.306 92.9583 113.551C92.1813 113.655 91.3986 113.71 90.6148 113.714ZM84.581 110.267C84.6672 110.934 85.4915 111.606 86.7898 112.055C88.7467 112.645 90.8092 112.791 92.829 112.484C94.8587 112.25 96.8122 111.569 98.5503 110.489C99.6816 109.714 100.307 108.864 100.215 108.181C100.123 107.498 99.3045 106.842 98.0116 106.392C96.047 105.84 93.9914 105.693 91.9691 105.963C89.9467 106.232 87.9997 106.911 86.2457 107.959C85.1143 108.728 84.4894 109.584 84.581 110.267Z" fill="#726014"/>
<path d="M86.9621 102.496C86.7304 103.266 87.0914 104.366 88.3843 105.596C89.9838 107 91.8765 108.024 93.9225 108.593C95.9452 109.264 98.0923 109.467 100.204 109.189C101.955 108.885 102.865 108.17 103.097 107.406C103.329 106.642 102.962 105.531 101.675 104.306C100.052 102.93 98.1659 101.901 96.1335 101.283C94.101 100.665 91.9646 100.471 89.855 100.713C88.1042 101.006 87.1883 101.732 86.9621 102.496Z" fill="#FFE463"/>
<path d="M98.4362 109.877C96.8518 109.858 95.2786 109.607 93.7654 109.135C91.6363 108.534 89.6695 107.458 88.0117 105.986C86.207 104.274 86.2555 102.968 86.444 102.339C86.6326 101.716 87.3114 100.6 89.7572 100.171C91.9483 99.8669 94.1795 100.069 96.2813 100.762C98.4115 101.361 100.38 102.435 102.04 103.905C103.84 105.623 103.791 106.929 103.603 107.558C103.414 108.186 102.735 109.292 100.289 109.725C99.6769 109.827 99.057 109.878 98.4362 109.877V109.877ZM91.5835 101.114C91.0314 101.112 90.48 101.155 89.935 101.244C88.5882 101.477 87.6669 102.009 87.4676 102.653C87.2737 103.304 87.7531 104.252 88.7444 105.2C90.2849 106.552 92.1048 107.542 94.0724 108.1C96.0177 108.725 98.0762 108.91 100.101 108.642C101.453 108.403 102.374 107.878 102.568 107.233C102.762 106.588 102.288 105.607 101.291 104.686C99.7517 103.333 97.9315 102.342 95.9634 101.786C94.5433 101.351 93.068 101.125 91.5835 101.114V101.114Z" fill="#726014"/>
<path d="M94.735 108.083C94.5034 108.853 94.8697 109.953 96.1573 111.183C97.7547 112.595 99.6476 113.626 101.695 114.202C103.72 114.864 105.867 115.061 107.977 114.776C109.723 114.473 110.633 113.757 110.865 112.988C111.096 112.218 110.73 111.118 109.442 109.893C107.819 108.517 105.933 107.488 103.901 106.87C101.869 106.251 99.7325 106.055 97.6226 106.295C95.8933 106.604 94.9667 107.314 94.735 108.083Z" fill="#FFE463"/>
<path d="M106.216 115.459C104.632 115.441 103.059 115.193 101.545 114.722C99.4147 114.121 97.4461 113.045 95.7863 111.573C93.987 109.855 94.0301 108.555 94.2186 107.926C94.4072 107.303 95.086 106.186 97.5318 105.758C99.7241 105.506 101.944 105.707 104.057 106.349C106.169 106.991 108.128 108.061 109.815 109.492C111.614 111.21 111.571 112.516 111.383 113.139C111.194 113.762 110.51 114.879 108.069 115.307C107.457 115.409 106.837 115.459 106.216 115.459V115.459ZM99.3635 106.701C98.8114 106.699 98.26 106.742 97.715 106.831C96.3681 107.064 95.4469 107.59 95.253 108.24C95.059 108.891 95.5331 109.839 96.5298 110.787C98.0934 112.104 99.9054 113.089 101.857 113.683C103.809 114.277 105.859 114.468 107.886 114.245C109.233 114.006 110.154 113.481 110.348 112.836C110.542 112.191 110.068 111.21 109.071 110.283C107.531 108.935 105.714 107.947 103.749 107.39C102.328 106.949 100.851 106.717 99.3635 106.701V106.701Z" fill="#726014"/>
<path d="M96.9713 102.496C96.7451 103.266 97.106 104.366 98.3936 105.596C99.9912 106.997 101.88 108.02 103.921 108.593C105.944 109.256 108.089 109.452 110.197 109.167C111.943 108.864 112.853 108.148 113.085 107.384C113.316 106.62 112.956 105.509 111.663 104.285C110.041 102.908 108.156 101.879 106.124 101.261C104.093 100.643 101.957 100.449 99.8482 100.692C98.0973 101.006 97.1868 101.732 96.9713 102.496Z" fill="#FFE463"/>
<path d="M108.436 109.877C106.852 109.858 105.279 109.608 103.765 109.135C101.635 108.534 99.6662 107.458 98.0064 105.986C96.2071 104.268 96.2556 102.968 96.4441 102.339C96.6327 101.71 97.3115 100.599 99.7573 100.171C101.948 99.8678 104.179 100.07 106.281 100.762C108.418 101.359 110.393 102.435 112.057 103.91C113.861 105.628 113.813 106.934 113.624 107.558C113.436 108.181 112.757 109.297 110.311 109.725C109.691 109.828 109.064 109.879 108.436 109.877V109.877ZM101.589 101.114C101.037 101.111 100.485 101.155 99.9405 101.244C98.5883 101.477 97.667 102.008 97.4731 102.653C97.2791 103.304 97.7532 104.252 98.7499 105.2C100.312 106.519 102.124 107.505 104.076 108.099C106.028 108.694 108.079 108.883 110.106 108.658C111.453 108.419 112.374 107.894 112.574 107.249C112.773 106.604 112.288 105.623 111.297 104.702C109.756 103.35 107.937 102.36 105.969 101.802C104.549 101.362 103.074 101.131 101.589 101.114V101.114Z" fill="#726014"/>
<path d="M104.568 103.715C104.568 104.512 105.247 105.46 106.836 106.246C108.779 107.122 110.893 107.545 113.021 107.482C115.148 107.514 117.254 107.064 119.184 106.165C120.763 105.352 121.425 104.398 121.42 103.596C121.415 102.794 120.741 101.851 119.152 101.065C117.197 100.233 115.093 99.8106 112.97 99.8246C110.846 99.8385 108.748 100.288 106.804 101.147C105.22 101.933 104.563 102.892 104.568 103.715Z" fill="#FFE463"/>
<path d="M112.891 108.008C110.724 108.051 108.575 107.609 106.599 106.712C104.374 105.629 104.035 104.35 104.029 103.694C104.029 103.044 104.347 101.776 106.556 100.643C108.575 99.7463 110.756 99.276 112.963 99.2611C115.171 99.2462 117.357 99.687 119.389 100.556C121.613 101.64 121.953 102.919 121.958 103.575C121.964 104.23 121.64 105.493 119.426 106.626C117.422 107.565 115.232 108.035 113.021 108.002L112.891 108.008ZM105.107 103.716C105.107 104.393 105.845 105.157 107.073 105.769C108.906 106.585 110.893 106.988 112.897 106.951H113.015C115.059 106.98 117.084 106.551 118.941 105.694C120.159 105.065 120.886 104.29 120.881 103.613C120.875 102.935 120.137 102.139 118.909 101.548C117.03 100.756 115.012 100.355 112.975 100.369C110.938 100.383 108.925 100.811 107.057 101.629C105.839 102.252 105.112 103.033 105.118 103.71L105.107 103.716Z" fill="#726014"/>
<path d="M99.0137 100.34C99.0137 101.142 99.6925 102.085 101.282 102.876C103.225 103.749 105.339 104.172 107.466 104.111C109.593 104.142 111.7 103.69 113.629 102.789C115.208 101.982 115.871 101.028 115.865 100.226C115.86 99.4237 115.186 98.4808 113.597 97.6896C111.641 96.8604 109.538 96.44 107.415 96.454C105.292 96.4679 103.195 96.916 101.249 97.7709C99.6656 98.5838 99.0083 99.5375 99.0137 100.34Z" fill="#FFE463"/>
<path d="M107.342 104.653C105.174 104.699 103.022 104.259 101.044 103.363C98.8194 102.28 98.48 100.995 98.4746 100.345C98.4746 99.6893 98.7925 98.4212 101.001 97.2886C103.006 96.3502 105.196 95.8797 107.407 95.9122C109.618 95.8611 111.814 96.3054 113.834 97.2127C116.059 98.2966 116.398 99.5755 116.404 100.231C116.409 100.887 116.086 102.15 113.872 103.282C111.868 104.226 109.678 104.698 107.466 104.664L107.342 104.653ZM99.5521 100.318C99.5521 100.995 100.29 101.765 101.518 102.372C103.35 103.19 105.338 103.593 107.342 103.553H107.461C109.505 103.578 111.528 103.147 113.387 102.29C114.604 101.667 115.331 100.887 115.326 100.21C115.321 99.5321 114.583 98.768 113.36 98.1611C111.481 97.369 109.462 96.9678 107.425 96.9817C105.388 96.9957 103.375 97.4245 101.508 98.2424C100.29 98.8656 99.5629 99.6405 99.5682 100.318H99.5521Z" fill="#726014"/>
<path d="M87.9043 99.2229C87.9043 100.025 88.5831 100.968 90.1724 101.759C92.1158 102.632 94.2295 103.054 96.357 102.995C98.4841 103.026 100.591 102.574 102.52 101.672C104.104 100.865 104.761 99.9057 104.756 99.1091C104.75 98.3124 104.077 97.3587 102.488 96.5729C100.532 95.7437 98.4283 95.3233 96.3056 95.3373C94.1829 95.3512 92.0852 95.7993 90.1401 96.6542C88.5616 97.4671 87.8989 98.4208 87.9043 99.2229Z" fill="#FFE463"/>
<path d="M96.2328 103.537C94.0639 103.581 91.9125 103.139 89.935 102.242C87.71 101.158 87.3706 99.8789 87.3652 99.2286C87.3652 98.5729 87.6831 97.3048 89.8973 96.1722C91.9017 95.2327 94.0917 94.7622 96.3028 94.7958C98.5135 94.7233 100.711 95.1647 102.724 96.0855C104.949 97.1693 105.289 98.4483 105.294 99.104C105.3 99.7597 104.976 101.022 102.768 102.155C100.763 103.095 98.5734 103.567 96.362 103.537H96.2328ZM96.4321 95.8742H96.3189C94.2752 95.8446 92.2507 96.2741 90.3929 97.1314C89.1754 97.76 88.4481 98.535 88.4535 99.2124C88.4535 99.8898 89.1969 100.659 90.4252 101.266C92.2568 102.085 94.245 102.488 96.2489 102.448H96.362C98.4059 102.473 100.43 102.042 102.288 101.185C103.506 100.562 104.233 99.7814 104.228 99.104C104.222 98.4266 103.489 97.6625 102.261 97.0501C100.426 96.2362 98.437 95.8349 96.4321 95.8742V95.8742Z" fill="#726014"/>
<path d="M94.5684 95.8686C94.5684 96.6706 95.2472 97.619 96.8365 98.4047C98.7798 99.2778 100.894 99.7 103.021 99.6403C105.148 99.6707 107.254 99.2207 109.184 98.3235C110.768 97.5106 111.425 96.5568 111.42 95.7548C111.415 94.9527 110.741 94.0098 109.152 93.2186C107.196 92.3884 105.092 91.9679 102.969 91.9828C100.846 91.9977 98.7484 92.4477 96.8041 93.3053C95.2256 94.1128 94.563 95.0449 94.5684 95.8686Z" fill="#FFE463"/>
<path d="M102.897 100.182C100.728 100.228 98.5769 99.7876 96.599 98.8923C94.3741 97.8085 94.0347 96.5296 94.0293 95.8738C94.0293 95.2181 94.3472 93.9555 96.5613 92.8229C98.5655 91.8821 100.755 91.4096 102.967 91.441C105.176 91.3837 107.37 91.8244 109.389 92.7307C111.613 93.8146 111.953 95.0989 111.958 95.7492C111.964 96.3995 111.64 97.673 109.432 98.8056C107.427 99.744 105.237 100.215 103.026 100.182H102.897ZM95.1068 95.8467C95.1068 96.5241 95.8502 97.2882 97.0785 97.9006C98.9079 98.7218 100.894 99.1305 102.897 99.0982H103.01C105.053 99.1251 107.077 98.6957 108.936 97.841C110.154 97.2124 110.881 96.4374 110.875 95.76C110.87 95.0826 110.137 94.3131 108.909 93.7062C107.043 92.8835 105.02 92.4803 102.983 92.5248C100.939 92.4996 98.9152 92.9309 97.057 93.7875C95.8394 94.4107 95.1121 95.191 95.1175 95.8684L95.1068 95.8467Z" fill="#726014"/>
<path d="M77.1361 99.4346C77.1361 99.5484 77.2439 99.7597 77.6479 100.02C78.216 100.347 78.8354 100.574 79.4796 100.692C81.571 101.066 83.7089 101.095 85.8097 100.779C87.9219 100.536 89.9802 99.9464 91.9027 99.0336C92.5043 98.7584 93.0518 98.3765 93.5189 97.9064C93.8422 97.5487 93.8799 97.3211 93.8637 97.2073C93.8476 97.0935 93.756 96.8822 93.3519 96.622C92.7835 96.2955 92.1642 96.0683 91.5203 95.9501C87.3052 95.2771 82.9866 95.8533 79.0917 97.6083C78.4906 97.8844 77.9433 98.2661 77.4755 98.7355C77.1523 99.0932 77.12 99.3208 77.1361 99.4346Z" fill="#FFE463"/>
<path d="M82.6905 101.548C81.5746 101.56 80.4606 101.455 79.3665 101.234C78.656 101.101 77.9752 100.841 77.3571 100.464C77.1677 100.369 77.0018 100.232 76.8713 100.064C76.7409 99.8967 76.6492 99.7018 76.6028 99.494V99.494C76.5939 99.2804 76.6322 99.0675 76.7152 98.8707C76.7981 98.6738 76.9235 98.498 77.0823 98.356C77.5886 97.8441 78.1792 97.4243 78.8278 97.115C82.8301 95.2955 87.2769 94.7036 91.6119 95.4134C92.3178 95.5415 92.996 95.7928 93.616 96.1558C93.8065 96.2517 93.9735 96.3889 94.1048 96.5576C94.2362 96.7263 94.3287 96.9222 94.3756 97.1312C94.3834 97.3439 94.3444 97.5556 94.2616 97.7514C94.1787 97.9472 94.0539 98.1221 93.8961 98.2638C93.3884 98.774 92.7981 99.1936 92.1506 99.5048C90.1738 100.445 88.0573 101.052 85.8852 101.304C84.8267 101.455 83.7595 101.536 82.6905 101.548V101.548ZM77.6857 99.3802C77.7592 99.4613 77.8446 99.5308 77.9389 99.5861C78.4516 99.8798 79.0113 100.082 79.5928 100.182C81.6242 100.54 83.6996 100.568 85.7397 100.264C87.7925 100.023 89.7934 99.4525 91.6658 98.5727C92.2004 98.3244 92.6873 97.9832 93.1042 97.5648C93.1814 97.4896 93.2452 97.4016 93.2927 97.3047C93.2227 97.222 93.1388 97.1523 93.0449 97.0987C92.5313 96.807 91.972 96.6054 91.391 96.5026C87.2968 95.8593 83.105 96.424 79.3234 98.1284C78.7883 98.3787 78.2999 98.7196 77.8796 99.1363C77.8047 99.2088 77.7395 99.2908 77.6857 99.3802V99.3802Z" fill="#726014"/>
<path d="M85.0755 93.571C85.0755 93.6848 85.1832 93.8961 85.6142 94.1562C86.182 94.483 86.8017 94.7085 87.4459 94.8228C89.5385 95.2014 91.6787 95.2325 93.7814 94.9149C95.8936 94.6722 97.9519 94.0828 99.8744 93.1699C100.473 92.8898 101.02 92.5086 101.491 92.0428C101.814 91.6851 101.846 91.4575 101.83 91.3437C101.814 91.2299 101.728 91.0185 101.291 90.7584C100.724 90.4301 100.104 90.2027 99.4596 90.0864C95.2464 89.4066 90.9275 89.9831 87.0365 91.7447C86.4364 92.0203 85.8894 92.4 85.4203 92.8665C85.1186 93.2241 85.0647 93.4572 85.0755 93.571Z" fill="#FFE463"/>
<path d="M90.6314 95.668C89.5155 95.68 88.4015 95.5746 87.3074 95.3537C86.6002 95.2239 85.9205 94.9728 85.2979 94.6113C85.1097 94.5145 84.9447 94.3775 84.8144 94.21C84.6842 94.0425 84.5918 93.8484 84.5437 93.6413C84.537 93.428 84.5764 93.2158 84.6591 93.0193C84.7419 92.8228 84.8661 92.6467 85.0232 92.5033C85.5286 91.9876 86.1192 91.564 86.7687 91.2514C88.7484 90.3164 90.8665 89.7124 93.0395 89.4631C95.2012 89.1362 97.4017 89.1691 99.5528 89.5607C100.26 89.6899 100.94 89.9411 101.562 90.3031C101.749 90.3958 101.914 90.5289 102.044 90.6928C102.175 90.8567 102.268 91.0474 102.316 91.2514C102.325 91.465 102.286 91.6778 102.204 91.8745C102.121 92.0713 101.995 92.2472 101.837 92.3895C101.331 92.9016 100.74 93.3215 100.091 93.6304C98.1152 94.5718 95.9985 95.1796 93.826 95.4296C92.7675 95.5792 91.7003 95.6588 90.6314 95.668V95.668ZM85.6319 93.5004C85.702 93.583 85.7859 93.6527 85.8798 93.7063C86.393 93.999 86.9524 94.2007 87.5337 94.3024C89.5669 94.6604 91.6441 94.6879 93.686 94.3837C95.7388 94.1441 97.7398 93.5732 99.612 92.6929C100.147 92.4426 100.636 92.1017 101.056 91.685C101.13 91.6072 101.193 91.5197 101.244 91.4249C101.171 91.3437 101.085 91.2743 100.991 91.2189C100.479 90.928 99.9217 90.7264 99.3426 90.6228C95.2506 89.966 91.057 90.5235 87.2751 92.2269C86.7413 92.4768 86.2547 92.8178 85.8367 93.2349C85.7633 93.3109 85.7032 93.3988 85.6589 93.495L85.6319 93.5004Z" fill="#726014"/>
<path d="M125.739 111.481C125.69 111.856 125.496 112.196 125.2 112.429C124.679 112.873 124.079 113.214 123.433 113.437C119.35 114.71 114.951 114.493 111.01 112.825C110.392 112.54 109.833 112.141 109.362 111.649C109.09 111.388 108.932 111.03 108.92 110.652C108.969 110.277 109.163 109.937 109.459 109.703C109.98 109.26 110.58 108.918 111.226 108.696C115.309 107.423 119.708 107.64 123.649 109.308C124.272 109.591 124.837 109.99 125.314 110.484C125.58 110.747 125.733 111.105 125.739 111.481Z" fill="#FFE463"/>
<path d="M118.192 114.803C117.847 114.803 117.497 114.803 117.142 114.776C114.944 114.711 112.781 114.214 110.774 113.313C110.087 113.002 109.467 112.56 108.948 112.012C108.764 111.832 108.619 111.617 108.52 111.38C108.421 111.143 108.37 110.888 108.371 110.63C108.396 110.374 108.471 110.125 108.593 109.898C108.714 109.671 108.878 109.471 109.077 109.308C109.65 108.816 110.309 108.438 111.022 108.192C115.243 106.863 119.797 107.086 123.87 108.82C124.557 109.131 125.177 109.573 125.697 110.121C125.88 110.301 126.025 110.516 126.125 110.753C126.225 110.99 126.277 111.245 126.278 111.503V111.503C126.252 111.759 126.176 112.008 126.054 112.235C125.932 112.462 125.767 112.663 125.567 112.825C124.997 113.32 124.336 113.699 123.623 113.941C121.876 114.544 120.038 114.836 118.192 114.803V114.803ZM116.484 108.414C114.758 108.381 113.04 108.649 111.404 109.205C110.811 109.394 110.262 109.7 109.788 110.105C109.601 110.246 109.471 110.45 109.422 110.679C109.449 110.913 109.558 111.13 109.729 111.291C110.157 111.734 110.665 112.091 111.226 112.343C115.04 113.953 119.295 114.16 123.245 112.928C123.828 112.734 124.367 112.428 124.835 112.028C125.022 111.888 125.152 111.684 125.201 111.454V111.454C125.173 111.22 125.065 111.003 124.894 110.842C124.465 110.401 123.957 110.046 123.396 109.796C121.526 108.964 119.514 108.502 117.47 108.436C117.125 108.419 116.802 108.414 116.484 108.414Z" fill="#726014"/>
<path d="M86.5366 93.8039C86.5635 93.9177 86.5366 94.1508 86.2726 94.5409C85.8617 95.0526 85.366 95.4889 84.8073 95.8307C82.9917 96.9424 81.0084 97.7496 78.9351 98.2205C76.88 98.7612 74.7512 98.9625 72.6319 98.8166C71.9778 98.7687 71.3366 98.6093 70.7356 98.3452C70.3046 98.1284 70.1969 97.9279 70.1646 97.8033C70.1322 97.6786 70.1646 97.4619 70.4339 97.0663C70.8448 96.5546 71.3406 96.1183 71.8993 95.7765C73.7136 94.6635 75.6974 93.8579 77.7714 93.3921C79.8256 92.8458 81.9552 92.6444 84.0746 92.796C84.7266 92.8424 85.366 93 85.9655 93.262C86.4019 93.4951 86.5097 93.6956 86.5366 93.8039Z" fill="#FFE463"/>
<path d="M73.9295 99.4183C73.4554 99.4183 73.0029 99.3967 72.5719 99.3533C71.855 99.292 71.1537 99.1088 70.4978 98.8114C70.2993 98.7349 70.1198 98.6158 69.9718 98.4622C69.8239 98.3087 69.711 98.1246 69.6412 97.9227C69.6117 97.7116 69.6282 97.4966 69.6896 97.2926C69.751 97.0886 69.8558 96.9004 69.9967 96.7413C70.4507 96.1784 70.9974 95.6982 71.6129 95.3215C75.3986 93.08 79.7574 92.0112 84.1438 92.2488C84.8614 92.3058 85.5635 92.4892 86.2179 92.7907C86.4166 92.8653 86.5964 92.9832 86.7445 93.1359C86.8926 93.2886 87.0053 93.4724 87.0745 93.674V93.674C87.104 93.8851 87.0875 94.1001 87.0261 94.3041C86.9647 94.5081 86.8599 94.6963 86.719 94.8554C86.2639 95.4187 85.7175 95.9005 85.1028 96.2807C83.2366 97.4266 81.1966 98.2576 79.0636 98.7409C77.3844 99.1676 75.6613 99.395 73.9295 99.4183V99.4183ZM70.6971 97.6842C70.7769 97.7564 70.8679 97.815 70.9665 97.8576C71.5059 98.0996 72.0845 98.241 72.6742 98.2749C74.7319 98.4134 76.7984 98.2176 78.7942 97.6951C80.8076 97.2358 82.7341 96.4526 84.4994 95.3757C85.0055 95.0705 85.4556 94.68 85.8301 94.2214C85.8942 94.1348 85.9467 94.04 85.9863 93.9396C85.9065 93.8674 85.8155 93.8088 85.7169 93.7662C85.1867 93.5305 84.6198 93.3893 84.0415 93.3489C79.8946 93.136 75.776 94.1435 72.1894 96.2481C71.6815 96.553 71.2311 96.9456 70.8587 97.4078C70.7937 97.491 70.7427 97.5844 70.7079 97.6842H70.6971Z" fill="#726014"/>
<path d="M46.2176 110.527C48.4857 113.074 47.8823 117.805 44.2782 121.057C40.6741 124.308 35.9494 124.416 33.676 121.864C31.4025 119.312 32.0113 114.608 35.6154 111.351C39.2195 108.094 43.9388 107.975 46.2176 110.527Z" fill="#FFE463"/>
<path d="M38.0348 124.178C37.1489 124.205 36.2673 124.044 35.4476 123.705C34.6279 123.366 33.8885 122.857 33.2778 122.211C30.6919 119.312 31.5808 114.256 35.255 110.934C38.9291 107.612 44.0309 107.265 46.6168 110.164C49.2027 113.063 48.3138 118.12 44.6343 121.441C42.9519 123.009 40.7948 123.964 38.5089 124.151L38.0348 124.178ZM41.8975 109.27C39.6891 109.341 37.5823 110.22 35.9715 111.741C32.7391 114.662 31.8825 119.035 34.0698 121.496C34.6318 122.075 35.3166 122.519 36.0731 122.795C36.8297 123.071 37.6384 123.171 38.4389 123.089C40.4841 122.914 42.4117 122.053 43.9124 120.645C47.1448 117.724 47.996 113.351 45.8087 110.89C45.3082 110.357 44.7006 109.937 44.0263 109.657C43.352 109.378 42.6264 109.246 41.8975 109.27Z" fill="#726014"/>
<path d="M136.299 215.843C136.299 224.449 130.346 231.207 123.245 231.207C116.145 231.207 110.197 224.449 110.197 215.843C110.197 207.238 116.123 200.48 123.245 200.48C130.367 200.48 136.299 207.221 136.299 215.843Z" fill="black"/>
<path d="M123.246 231.607C115.827 231.607 109.777 224.562 109.777 215.838C109.777 207.113 115.811 200.068 123.246 200.068C130.68 200.068 136.714 207.14 136.714 215.838C136.714 224.535 130.669 231.607 123.246 231.607ZM123.246 200.881C116.274 200.881 110.602 207.59 110.602 215.838C110.602 224.086 116.274 230.794 123.246 230.794C130.217 230.794 135.895 224.086 135.895 215.838C135.895 207.59 130.222 200.886 123.246 200.886V200.881Z" fill="black"/>
<path d="M139.634 215.843C139.634 224.449 133.676 231.207 126.581 231.207C119.486 231.207 113.527 224.449 113.527 215.843C113.527 207.238 119.486 200.48 126.581 200.48C133.676 200.48 139.634 207.221 139.634 215.843Z" fill="#3E3E3E"/>
<path d="M126.602 231.884C119.033 231.884 112.875 224.687 112.875 215.843C112.875 206.999 119.033 199.802 126.602 199.802C134.171 199.802 140.329 206.999 140.329 215.843C140.329 224.687 134.144 231.884 126.602 231.884ZM126.602 201.157C119.776 201.157 114.211 207.747 114.211 215.843C114.211 223.939 119.755 230.523 126.602 230.523C133.449 230.523 138.993 223.934 138.993 215.837C138.993 207.741 133.406 201.157 126.602 201.157Z" fill="black"/>
<path d="M50.7695 216.976C50.7695 225.581 44.8111 232.339 37.716 232.339C30.6209 232.339 24.668 225.565 24.668 216.976C24.668 208.386 30.6209 201.596 37.7106 201.596C44.8003 201.596 50.7695 208.354 50.7695 216.976Z" fill="black"/>
<path d="M37.7105 232.729C30.2921 232.729 24.2422 225.684 24.2422 216.96C24.2422 208.235 30.276 201.19 37.7105 201.19C45.145 201.19 51.1787 208.267 51.1787 216.976C51.1787 225.684 45.1342 232.729 37.7105 232.729ZM37.7105 202.003C30.7393 202.003 25.0664 208.712 25.0664 216.96C25.0664 225.208 30.7393 231.916 37.7105 231.916C44.6816 231.916 50.3653 225.208 50.3653 216.976C50.3653 208.744 44.714 202.003 37.7105 202.003Z" fill="black"/>
<path d="M54.099 216.976C54.099 225.581 48.173 232.339 41.051 232.339C33.9289 232.339 28.0137 225.565 28.0137 216.976C28.0137 208.386 33.9397 201.596 41.051 201.596C48.1622 201.596 54.099 208.354 54.099 216.976Z" fill="#3E3E3E"/>
<path d="M41.0511 233C33.4819 233 27.3242 225.804 27.3242 216.96C27.3242 208.116 33.4819 200.919 41.0511 200.919C48.6203 200.919 54.7726 208.116 54.7726 216.96C54.7726 225.804 48.6203 233 41.0511 233ZM41.0511 202.274C34.2254 202.274 28.6603 208.863 28.6603 216.96C28.6603 225.056 34.2146 231.645 41.0511 231.645C47.8876 231.645 53.4419 225.056 53.4419 216.96C53.4419 208.863 47.8768 202.274 41.0511 202.274Z" fill="black"/>
<path d="M127.087 105.477C127.033 105.58 126.872 105.748 126.403 105.845C125.758 105.956 125.098 105.956 124.453 105.845C122.374 105.45 120.373 104.718 118.527 103.678C116.638 102.701 114.922 101.42 113.446 99.8843C112.997 99.409 112.632 98.859 112.369 98.2585C112.191 97.8087 112.24 97.5811 112.294 97.4782C112.347 97.3752 112.504 97.2126 112.978 97.1151C113.625 97.0106 114.284 97.0197 114.928 97.1422C117.008 97.5336 119.01 98.2659 120.854 99.3098C122.744 100.286 124.462 101.568 125.94 103.103C126.39 103.578 126.754 104.129 127.017 104.729C127.19 105.152 127.141 105.379 127.087 105.477Z" fill="#FFE463"/>
<path d="M125.61 106.457C125.195 106.455 124.78 106.42 124.371 106.354C122.221 105.95 120.152 105.194 118.245 104.116C116.301 103.108 114.534 101.787 113.014 100.204C112.519 99.6826 112.116 99.0795 111.824 98.4208C111.726 98.2309 111.672 98.0219 111.663 97.8085C111.655 97.595 111.693 97.3823 111.775 97.1853C111.892 97.008 112.046 96.8587 112.227 96.7482C112.407 96.6377 112.61 96.5686 112.82 96.5458C113.533 96.4229 114.262 96.4229 114.975 96.5458C119.278 97.4288 123.226 99.5682 126.326 102.697C126.825 103.217 127.229 103.82 127.522 104.479C127.62 104.668 127.675 104.876 127.683 105.089C127.691 105.302 127.653 105.514 127.571 105.71C127.452 105.886 127.297 106.035 127.115 106.145C126.934 106.256 126.731 106.325 126.52 106.349C126.221 106.416 125.916 106.452 125.61 106.457V106.457ZM112.739 97.7055C112.753 97.8133 112.78 97.9189 112.82 98.0198C113.065 98.5606 113.403 99.0539 113.817 99.4776C115.254 100.964 116.921 102.209 118.752 103.163C120.553 104.177 122.505 104.892 124.532 105.281C125.111 105.394 125.706 105.405 126.289 105.314C126.395 105.294 126.498 105.259 126.596 105.211C126.582 105.103 126.553 104.997 126.509 104.897C126.267 104.359 125.933 103.867 125.524 103.444C124.085 101.954 122.417 100.708 120.583 99.7539C118.783 98.7403 116.83 98.0266 114.803 97.6405C114.224 97.5255 113.629 97.5145 113.047 97.608C112.94 97.6254 112.837 97.6582 112.739 97.7055V97.7055Z" fill="#726014"/>
<path d="M158.542 119.166H12.3145V206.582H158.542V119.166Z" fill="#FFE463"/>
<path d="M158.926 206.988H11.9121V118.759H158.926V206.988ZM12.6987 206.175H158.14V119.572H12.7202L12.6987 206.175Z" fill="black"/>
<path d="M195.67 153.826L162.248 163.644L164.232 170.479L197.655 160.661L195.67 153.826Z" fill="white"/>
<path d="M163.774 171.336L161.414 163.207L196.124 153.03L198.49 161.158L163.774 171.336ZM163.084 164.117L164.7 169.656L196.836 160.216L195.219 154.683L163.084 164.117Z" fill="black"/>
<path d="M198.626 163.424C202.327 163.424 205.327 160.405 205.327 156.682C205.327 152.959 202.327 149.941 198.626 149.941C194.924 149.941 191.924 152.959 191.924 156.682C191.924 160.405 194.924 163.424 198.626 163.424Z" fill="white"/>
<path d="M198.624 164.101C198.034 164.102 197.446 164.031 196.873 163.889C195.457 163.54 194.175 162.776 193.191 161.693C192.206 160.611 191.562 159.259 191.341 157.809C191.12 156.359 191.331 154.875 191.948 153.546C192.565 152.217 193.56 151.101 194.807 150.341C196.055 149.58 197.498 149.208 198.955 149.273C200.412 149.337 201.818 149.835 202.994 150.703C204.17 151.571 205.063 152.77 205.562 154.148C206.061 155.527 206.142 157.024 205.795 158.449C205.4 160.061 204.479 161.495 203.179 162.519C201.879 163.544 200.276 164.101 198.624 164.101V164.101ZM198.624 150.618C197.149 150.614 195.723 151.154 194.617 152.136C193.51 153.118 192.801 154.475 192.622 155.948C192.444 157.421 192.808 158.909 193.648 160.13C194.487 161.351 195.742 162.22 197.175 162.573C197.947 162.77 198.75 162.811 199.537 162.694C200.325 162.577 201.082 162.305 201.764 161.892C202.447 161.479 203.041 160.935 203.513 160.29C203.985 159.645 204.326 158.912 204.514 158.134C204.703 157.356 204.737 156.548 204.614 155.756C204.491 154.965 204.213 154.206 203.796 153.524C203.38 152.841 202.833 152.248 202.188 151.779C201.542 151.31 200.811 150.974 200.036 150.791C199.57 150.679 199.093 150.621 198.613 150.618H198.624Z" fill="black"/>
<path d="M150.015 180.283C149.676 180.966 149.665 181.974 150.279 183.133C151.01 184.421 152.116 185.454 153.447 186.092C154.756 186.786 156.244 187.064 157.714 186.889C159.012 186.694 159.82 186.092 160.159 185.415C160.499 184.737 160.51 183.729 159.901 182.564C159.143 181.294 158.042 180.266 156.726 179.601C155.409 178.936 153.932 178.661 152.466 178.809C151.168 179.004 150.36 179.584 150.015 180.283Z" fill="#FFE463"/>
<path d="M156.853 187.496C155.583 187.478 154.334 187.164 153.205 186.58C151.774 185.892 150.587 184.777 149.806 183.388C149.458 182.908 149.249 182.341 149.202 181.749C149.154 181.158 149.271 180.564 149.538 180.035C149.805 179.505 150.212 179.06 150.715 178.749C151.218 178.438 151.796 178.273 152.386 178.272C153.966 178.079 155.567 178.373 156.976 179.118C158.409 179.808 159.595 180.924 160.376 182.315C160.683 182.81 160.867 183.372 160.914 183.954C160.961 184.536 160.869 185.12 160.645 185.659C160.343 186.159 159.927 186.58 159.432 186.887C158.936 187.194 158.375 187.378 157.795 187.425C157.483 187.473 157.168 187.497 156.853 187.496V187.496ZM153.313 179.286C153.057 179.286 152.801 179.306 152.548 179.345C152.138 179.368 151.738 179.487 151.381 179.693C151.025 179.899 150.722 180.187 150.496 180.532C150.353 180.916 150.303 181.329 150.348 181.736C150.392 182.144 150.532 182.535 150.754 182.879C151.459 184.051 152.479 184.998 153.696 185.613C154.913 186.228 156.278 186.484 157.634 186.352C158.051 186.375 158.465 186.276 158.827 186.066C159.189 185.857 159.482 185.546 159.672 185.171C159.861 184.797 159.938 184.376 159.894 183.958C159.85 183.54 159.686 183.145 159.422 182.819C158.736 181.642 157.715 180.698 156.492 180.109C155.508 179.594 154.421 179.313 153.313 179.286V179.286Z" fill="#826D16"/>
<path d="M34.2793 141.037C35.4742 141.844 36.8807 142.274 38.3198 142.274C39.7588 142.274 41.1653 141.844 42.3603 141.037C44.763 139.411 43.8041 136.208 43.8041 136.208" fill="#FFE463"/>
<path d="M38.4055 142.826C36.8182 142.816 35.2674 142.346 33.9395 141.471L34.5752 140.598L34.2573 141.037L34.5752 140.598C35.678 141.349 36.9794 141.751 38.3113 141.751C39.6431 141.751 40.9445 141.349 42.0474 140.598C44.0784 139.249 43.3026 136.496 43.2703 136.377L44.3046 136.068C44.3477 136.214 45.3444 139.704 42.6453 141.487C41.3957 142.347 39.9196 142.813 38.4055 142.826Z" fill="#826D16"/>
<path d="M33.4277 154.406C33.6523 155.838 34.296 157.17 35.2768 158.232C36.2575 159.293 37.5306 160.037 38.9336 160.367C41.735 161.045 43.432 158.135 43.432 158.135" fill="#FFE463"/>
<path d="M39.7914 161.007C39.4539 161.007 39.1175 160.967 38.7893 160.888C33.5367 159.614 32.8633 154.52 32.8633 154.471L33.9407 154.341C34.1476 155.665 34.7442 156.897 35.6537 157.876C36.5631 158.856 37.7435 159.538 39.0425 159.836C41.4129 160.411 42.8837 157.961 42.9483 157.853L43.8749 158.395C43.8265 158.525 42.3449 161.007 39.7914 161.007Z" fill="#826D16"/>
<path d="M63.7324 139.78C63.958 141.212 64.6028 142.544 65.5844 143.606C66.5661 144.667 67.84 145.411 69.2436 145.741C72.045 146.418 73.742 143.514 73.742 143.514" fill="#FFE463"/>
<path d="M70.0999 146.38C69.7696 146.379 69.4405 146.339 69.1194 146.261C63.8614 144.988 63.1934 139.894 63.1934 139.839L64.2708 139.715C64.478 141.038 65.0748 142.269 65.9843 143.247C66.8937 144.226 68.074 144.908 69.3726 145.204C71.7376 145.784 73.2138 143.329 73.273 143.226L74.205 143.768C74.135 143.893 72.6535 146.38 70.0999 146.38Z" fill="#826D16"/>
<path d="M128.039 159.457C127.117 158.344 125.886 157.532 124.504 157.124C123.122 156.715 121.65 156.73 120.276 157.165C117.529 158.021 117.545 161.392 117.545 161.392" fill="#FFE463"/>
<path d="M117.008 161.397C117.008 161.24 117.008 157.604 120.122 156.65C125.283 155.024 128.434 159.088 128.467 159.126L127.615 159.787C126.764 158.757 125.626 158.006 124.347 157.631C123.069 157.256 121.708 157.275 120.44 157.685C118.112 158.406 118.085 161.272 118.085 161.392L117.008 161.397Z" fill="#826D16"/>
<path d="M83.87 159.473C83.87 159.473 81.8067 162.378 85.928 163.662C87.3921 164.155 88.9742 164.164 90.4441 163.69C91.914 163.215 93.195 162.281 94.1005 161.023C95.2804 159.289 94.3753 157.132 92.0372 156.888" fill="#FFE463"/>
<path d="M88.2974 164.578C87.4398 164.574 86.5878 164.439 85.7708 164.177C84.2354 163.7 83.2872 162.947 82.9478 161.928C82.8235 161.459 82.8025 160.968 82.8862 160.489C82.97 160.011 83.1565 159.557 83.4327 159.159L84.3054 159.793L83.869 159.473L84.3108 159.787C84.1328 160.047 84.0107 160.341 83.9523 160.651C83.8939 160.961 83.9004 161.279 83.9714 161.586C84.1977 162.253 84.9088 162.779 86.0886 163.142C87.4394 163.592 88.8974 163.6 90.2528 163.163C91.6081 162.727 92.7909 161.87 93.6308 160.714C93.8514 160.422 93.9911 160.077 94.0356 159.713C94.0801 159.35 94.0278 158.981 93.8841 158.644C93.6973 158.289 93.4206 157.989 93.082 157.776C92.7433 157.563 92.3547 157.444 91.9554 157.43L92.0685 156.346C92.6541 156.378 93.2211 156.564 93.7121 156.887C94.2031 157.209 94.6006 157.656 94.8645 158.183C95.0846 158.691 95.1685 159.248 95.108 159.798C95.0475 160.349 94.8447 160.874 94.5198 161.321C93.811 162.319 92.878 163.134 91.7966 163.7C90.7153 164.266 89.5163 164.566 88.2974 164.578Z" fill="#826D16"/>
<path d="M28.455 175.687C28.455 175.687 27.7924 179.193 32.0699 178.619C33.6045 178.449 35.0452 177.791 36.1819 176.74C37.3187 175.69 38.092 174.301 38.3892 172.777C38.734 170.707 37.0209 169.13 34.7905 169.9" fill="#FFE463"/>
<path d="M31.182 179.226C30.7091 179.282 30.2297 179.223 29.7844 179.053C29.3391 178.884 28.941 178.609 28.6239 178.251C28.3067 177.894 28.0799 177.465 27.9625 177.001C27.8451 176.537 27.8407 176.051 27.9496 175.584L29.0271 175.785L28.4884 175.687L29.0271 175.785C28.976 176.096 28.9894 176.415 29.0663 176.721C29.1433 177.026 29.2821 177.313 29.4743 177.562C29.9537 178.072 30.8211 178.245 32.044 178.104C33.4661 177.945 34.8006 177.333 35.8537 176.359C36.9067 175.384 37.6236 174.097 37.9 172.685C37.9774 172.328 37.9599 171.957 37.8492 171.608C37.7386 171.26 37.5387 170.948 37.2697 170.702C36.9519 170.458 36.5761 170.303 36.18 170.252C35.7838 170.2 35.3811 170.255 35.0124 170.409L34.6622 169.385C35.2077 169.166 35.8012 169.096 36.3823 169.183C36.9633 169.269 37.5112 169.509 37.97 169.878C38.3808 170.246 38.6885 170.716 38.8624 171.241C39.0363 171.766 39.0704 172.327 38.9613 172.869C38.6501 174.509 37.8235 176.005 36.6034 177.137C35.3833 178.269 33.8341 178.976 32.1841 179.156C31.8523 179.204 31.5173 179.228 31.182 179.226V179.226Z" fill="#826D16"/>
<path d="M9.76636 146.023C9.76636 146.023 9.09833 149.529 13.3759 148.954C14.9114 148.787 16.3533 148.13 17.4905 147.079C18.6277 146.028 19.4003 144.638 19.6952 143.113C20.0453 141.042 18.3322 139.471 16.1018 140.235" fill="#FFE463"/>
<path d="M12.4929 149.561C12.0287 149.594 11.5628 149.529 11.1249 149.37C10.6871 149.212 10.2869 148.963 9.95011 148.64C9.64406 148.267 9.42162 147.831 9.29797 147.364C9.17432 146.896 9.15237 146.407 9.2336 145.93L10.3111 146.136L9.77233 146.033L10.3111 146.131C10.2599 146.442 10.2727 146.76 10.3487 147.066C10.4247 147.372 10.5622 147.658 10.7528 147.908C11.2377 148.418 12.0997 148.591 13.3226 148.45C14.7413 148.292 16.0734 147.684 17.1268 146.715C18.1803 145.746 18.9006 144.466 19.184 143.058C19.2618 142.7 19.2445 142.328 19.1339 141.979C19.0232 141.63 18.8231 141.316 18.5536 141.069C18.2351 140.825 17.858 140.67 17.4607 140.62C17.0634 140.569 16.6599 140.625 16.291 140.782L15.9462 139.753C16.491 139.535 17.0834 139.465 17.6634 139.552C18.2434 139.638 18.7903 139.878 19.2486 140.246C19.6612 140.612 19.9705 141.082 20.1455 141.607C20.3204 142.132 20.3549 142.694 20.2453 143.237C19.9278 144.871 19.0986 146.36 17.879 147.485C16.6594 148.61 15.1136 149.313 13.468 149.491C13.1451 149.538 12.8192 149.561 12.4929 149.561V149.561Z" fill="#826D16"/>
<path d="M99.2446 185.285C99.0399 185.697 99.2446 186.417 100.15 187.393C102.495 189.685 105.476 191.21 108.699 191.766C110.008 191.912 110.709 191.663 110.914 191.251C111.118 190.839 110.914 190.119 110.014 189.149C107.671 186.849 104.686 185.323 101.459 184.775C100.155 184.624 99.4547 184.873 99.2446 185.285Z" fill="#FFE463"/>
<path d="M109.416 192.351C109.157 192.349 108.898 192.333 108.64 192.302C106.967 192.053 105.348 191.516 103.856 190.714C102.333 189.972 100.946 188.973 99.7564 187.761C98.5011 186.39 98.5227 185.528 98.7651 185.051C99.0075 184.564 99.6809 184.033 101.523 184.244C104.877 184.814 107.977 186.403 110.407 188.796C111.662 190.162 111.641 191.029 111.398 191.506C111.156 191.983 110.676 192.351 109.416 192.351ZM99.7187 185.528C99.6648 185.631 99.7187 186.124 100.538 187.024C102.792 189.226 105.656 190.69 108.753 191.224C109.96 191.365 110.369 191.11 110.423 191.007C110.477 190.904 110.423 190.416 109.604 189.511C108.504 188.405 107.23 187.49 105.833 186.802C104.452 186.064 102.956 185.566 101.41 185.328C100.204 185.171 99.7779 185.425 99.7294 185.545L99.7187 185.528Z" fill="#826D16"/>
<path d="M39.1433 199.764C39.181 200.22 39.7413 200.724 41.0073 201.081C42.5925 201.471 44.2318 201.589 45.8559 201.428C47.4808 201.326 49.0767 200.947 50.5752 200.306C51.7658 199.764 52.2345 199.168 52.1914 198.681C52.1483 198.193 51.588 197.721 50.322 197.364C48.7368 196.974 47.0975 196.856 45.4734 197.017C43.8488 197.117 42.253 197.495 40.7541 198.133C39.5743 198.719 39.1002 199.304 39.1433 199.764Z" fill="#FFE463"/>
<path d="M44.3815 202.03C43.1955 202.045 42.0126 201.903 40.8636 201.607C39.0804 201.098 38.6494 200.35 38.6063 199.808C38.5578 199.266 38.8595 198.459 40.535 197.673C42.0908 197.004 43.7488 196.608 45.4374 196.502C47.123 196.336 48.8245 196.458 50.4692 196.865C52.2524 197.369 52.6833 198.123 52.7264 198.659C52.7695 199.196 52.4732 200.014 50.7978 200.827C49.2411 201.493 47.5835 201.889 45.8953 201.997C45.3782 202.008 44.8717 202.03 44.3815 202.03ZM39.6784 199.716C39.6784 199.83 39.9801 200.231 41.1545 200.561C42.6771 200.931 44.2504 201.041 45.8091 200.886C47.3704 200.78 48.9034 200.414 50.3453 199.803C51.4227 199.261 51.6651 198.849 51.6544 198.719C51.6436 198.589 51.3527 198.209 50.1782 197.879C48.6557 197.509 47.0823 197.4 45.5236 197.554C43.9633 197.654 42.4312 198.021 40.9929 198.637C39.9154 199.152 39.6676 199.591 39.6784 199.721V199.716Z" fill="#826D16"/>
<path d="M135.098 140.522C134.753 141.2 134.747 142.208 135.361 143.367C136.118 144.639 137.219 145.669 138.535 146.335C139.852 147.001 141.33 147.276 142.796 147.128C144.094 146.933 144.897 146.332 145.242 145.649C145.587 144.966 145.592 143.964 144.978 142.804C144.222 141.532 143.122 140.503 141.807 139.837C140.491 139.171 139.014 138.896 137.549 139.043C136.25 139.238 135.442 139.84 135.098 140.522Z" fill="#FFE463"/>
<path d="M141.935 147.73C140.665 147.712 139.417 147.399 138.287 146.814C136.856 146.126 135.669 145.012 134.888 143.622C134.579 143.127 134.393 142.564 134.346 141.981C134.299 141.398 134.392 140.812 134.619 140.273C135.082 139.352 136.122 138.712 137.469 138.506C139.045 138.345 140.634 138.64 142.049 139.356C143.465 140.072 144.647 141.18 145.458 142.549C145.766 143.045 145.95 143.608 145.996 144.191C146.042 144.774 145.948 145.36 145.722 145.898C145.419 146.398 145.003 146.819 144.508 147.126C144.013 147.433 143.452 147.618 142.872 147.665C142.561 147.709 142.248 147.73 141.935 147.73V147.73ZM138.395 139.525C138.137 139.524 137.88 139.542 137.625 139.579C137.215 139.603 136.817 139.723 136.462 139.929C136.106 140.135 135.803 140.422 135.578 140.766V140.766C135.435 141.15 135.385 141.563 135.43 141.97C135.475 142.378 135.614 142.769 135.836 143.113C136.542 144.284 137.562 145.232 138.779 145.848C139.995 146.463 141.36 146.721 142.716 146.592C143.125 146.567 143.523 146.446 143.878 146.241C144.233 146.035 144.536 145.749 144.763 145.405C144.906 145.021 144.958 144.608 144.913 144.201C144.868 143.793 144.728 143.402 144.504 143.059C143.818 141.879 142.795 140.935 141.568 140.349C140.587 139.833 139.502 139.551 138.395 139.525V139.525Z" fill="#826D16"/>
<path opacity="0.2" d="M159.394 120.58H13.166V206.88H159.394V120.58Z" fill="#ABD0F4"/>
<path opacity="0.4" d="M99.1473 121.447L44.8163 209.145L10.4668 207.416L66.4086 117.128L99.1473 121.447Z" fill="url(#paint0_linear_140_1504)"/>
<path opacity="0.4" d="M124.98 118.602L71.4358 205.032L53.6738 202.626L108.802 113.644L124.98 118.602Z" fill="url(#paint1_linear_140_1504)"/>
<path d="M145.915 110.543H26.0098C19.2979 110.555 12.8642 113.242 8.1182 118.016C3.37218 122.79 0.700849 129.262 0.689453 136.013V190.682C0.702268 197.433 3.37406 203.904 8.11977 208.677C12.8655 213.451 19.2984 216.139 26.0098 216.152H145.915C152.627 216.139 159.06 213.451 163.805 208.677C168.551 203.904 171.223 197.433 171.236 190.682V136.024C171.227 129.271 168.557 122.796 163.811 118.02C159.064 113.244 152.629 110.555 145.915 110.543V110.543ZM155.074 190.682C155.074 193.125 154.109 195.468 152.391 197.196C150.674 198.924 148.344 199.894 145.915 199.894H26.0098C23.5809 199.894 21.2514 198.924 19.5338 197.196C17.8163 195.468 16.8514 193.125 16.8514 190.682V136.024C16.8514 133.581 17.8163 131.238 19.5338 129.51C21.2514 127.782 23.5809 126.812 26.0098 126.812H145.915C148.344 126.812 150.674 127.782 152.391 129.51C154.109 131.238 155.074 133.581 155.074 136.024V190.682Z" fill="white"/>
<path d="M145.915 216.846H26.0099C19.1143 216.837 12.5035 214.078 7.62758 209.173C2.75163 204.268 0.00855362 197.618 0 190.682L0 136.024C0.0085564 129.089 2.7518 122.439 7.62791 117.535C12.504 112.631 19.1148 109.873 26.0099 109.866H145.915C152.81 109.873 159.421 112.631 164.297 117.535C169.173 122.439 171.917 129.089 171.925 136.024V190.682C171.917 197.618 169.174 204.268 164.298 209.173C159.422 214.078 152.811 216.837 145.915 216.846V216.846ZM26.0099 111.221C19.472 111.228 13.2038 113.844 8.58026 118.493C3.95673 123.143 1.35538 129.448 1.34683 136.024V190.682C1.35538 197.259 3.95655 203.564 8.57993 208.215C13.2033 212.866 19.4715 215.482 26.0099 215.491H145.915C152.454 215.482 158.722 212.866 163.345 208.215C167.969 203.564 170.57 197.259 170.578 190.682V136.024C170.57 129.448 167.969 123.143 163.345 118.493C158.721 113.844 152.453 111.228 145.915 111.221H26.0099ZM145.915 200.588H26.0099C23.399 200.585 20.8957 199.541 19.0495 197.683C17.2033 195.826 16.1648 193.308 16.1619 190.682V136.024C16.1662 133.399 17.2053 130.882 19.0514 129.026C20.8975 127.17 23.3999 126.127 26.0099 126.124H145.915C148.525 126.127 151.028 127.17 152.874 129.026C154.72 130.882 155.759 133.399 155.763 136.024V190.682C155.76 193.308 154.722 195.826 152.876 197.683C151.03 199.541 148.526 200.585 145.915 200.588V200.588ZM26.0099 127.478C23.7567 127.48 21.596 128.381 20.0022 129.983C18.4084 131.585 17.5116 133.758 17.5088 136.024V190.682C17.5116 192.949 18.4082 195.122 20.0018 196.725C21.5955 198.329 23.7562 199.23 26.0099 199.233H145.915C148.169 199.23 150.33 198.329 151.923 196.725C153.517 195.122 154.414 192.949 154.417 190.682V136.024C154.414 133.758 153.517 131.585 151.923 129.983C150.329 128.381 148.169 127.48 145.915 127.478H26.0099Z" fill="black"/>
<path d="M24.5762 195.066C26.2751 195.066 27.6523 193.681 27.6523 191.972C27.6523 190.263 26.2751 188.877 24.5762 188.877C22.8772 188.877 21.5 190.263 21.5 191.972C21.5 193.681 22.8772 195.066 24.5762 195.066Z" fill="white"/>
<path d="M24.5778 195.744C23.8319 195.744 23.1028 195.521 22.4826 195.104C21.8625 194.687 21.3791 194.095 21.0937 193.402C20.8083 192.709 20.7336 191.946 20.8791 191.21C21.0246 190.474 21.3838 189.798 21.9112 189.268C22.4386 188.737 23.1105 188.376 23.8421 188.23C24.5736 188.083 25.3318 188.158 26.0209 188.445C26.71 188.733 27.299 189.219 27.7133 189.843C28.1277 190.466 28.3489 191.2 28.3489 191.95C28.3489 192.956 27.9516 193.921 27.2443 194.632C26.5371 195.344 25.5779 195.744 24.5778 195.744ZM24.5778 189.56C24.1023 189.56 23.6376 189.702 23.2423 189.968C22.8471 190.234 22.5391 190.612 22.3574 191.054C22.1757 191.496 22.1284 191.982 22.2216 192.451C22.3147 192.92 22.5441 193.35 22.8807 193.688C23.2172 194.026 23.6459 194.256 24.1123 194.348C24.5788 194.441 25.062 194.392 25.501 194.209C25.9399 194.025 26.3148 193.714 26.5782 193.316C26.8416 192.918 26.9816 192.45 26.9805 191.972C26.9805 191.655 26.9183 191.341 26.7975 191.048C26.6767 190.755 26.4996 190.489 26.2764 190.265C26.0532 190.041 25.7883 189.863 25.4968 189.742C25.2054 189.621 24.893 189.56 24.5778 189.56V189.56Z" fill="black"/>
<path d="M24.5762 136.864C26.2751 136.864 27.6523 135.479 27.6523 133.77C27.6523 132.061 26.2751 130.676 24.5762 130.676C22.8772 130.676 21.5 132.061 21.5 133.77C21.5 135.479 22.8772 136.864 24.5762 136.864Z" fill="white"/>
<path d="M24.5778 137.537C23.8319 137.537 23.1028 137.314 22.4826 136.897C21.8625 136.48 21.3791 135.888 21.0937 135.195C20.8083 134.502 20.7336 133.739 20.8791 133.003C21.0246 132.267 21.3838 131.591 21.9112 131.061C22.4386 130.53 23.1105 130.169 23.8421 130.023C24.5736 129.876 25.3318 129.951 26.0209 130.238C26.71 130.526 27.299 131.012 27.7133 131.636C28.1277 132.259 28.3489 132.993 28.3489 133.743C28.3489 134.749 27.9516 135.714 27.2443 136.425C26.5371 137.137 25.5779 137.537 24.5778 137.537V137.537ZM24.5778 131.353C24.1025 131.353 23.638 131.495 23.2429 131.761C22.8477 132.026 22.5398 132.404 22.3579 132.845C22.1761 133.287 22.1285 133.773 22.2212 134.242C22.3139 134.711 22.5427 135.141 22.8788 135.479C23.2148 135.817 23.6429 136.047 24.109 136.141C24.5751 136.234 25.0582 136.186 25.4972 136.003C25.9363 135.82 26.3115 135.51 26.5756 135.113C26.8396 134.716 26.9805 134.248 26.9805 133.77C26.9805 133.129 26.7274 132.514 26.2768 132.061C25.8262 131.608 25.215 131.353 24.5778 131.353V131.353Z" fill="black"/>
<path d="M147.344 195.321C149.043 195.321 150.42 193.936 150.42 192.227C150.42 190.518 149.043 189.132 147.344 189.132C145.645 189.132 144.268 190.518 144.268 192.227C144.268 193.936 145.645 195.321 147.344 195.321Z" fill="white"/>
<path d="M147.343 195.998C146.598 195.998 145.868 195.775 145.248 195.359C144.628 194.942 144.145 194.349 143.859 193.656C143.574 192.963 143.499 192.2 143.645 191.464C143.79 190.729 144.149 190.053 144.677 189.522C145.204 188.992 145.876 188.63 146.608 188.484C147.339 188.338 148.097 188.413 148.787 188.7C149.476 188.987 150.065 189.473 150.479 190.097C150.893 190.721 151.115 191.454 151.115 192.205C151.115 193.211 150.717 194.175 150.01 194.887C149.303 195.598 148.344 195.998 147.343 195.998V195.998ZM147.343 189.809C146.868 189.809 146.404 189.951 146.008 190.217C145.613 190.482 145.305 190.86 145.124 191.301C144.942 191.743 144.894 192.229 144.987 192.698C145.08 193.167 145.308 193.597 145.644 193.935C145.98 194.273 146.409 194.503 146.875 194.597C147.341 194.69 147.824 194.642 148.263 194.459C148.702 194.276 149.077 193.966 149.341 193.569C149.605 193.172 149.746 192.704 149.746 192.226C149.746 191.585 149.493 190.97 149.042 190.517C148.592 190.064 147.981 189.809 147.343 189.809V189.809Z" fill="black"/>
<path d="M147.344 137.113C149.043 137.113 150.42 135.728 150.42 134.019C150.42 132.31 149.043 130.925 147.344 130.925C145.645 130.925 144.268 132.31 144.268 134.019C144.268 135.728 145.645 137.113 147.344 137.113Z" fill="white"/>
<path d="M147.343 137.791C146.598 137.791 145.868 137.568 145.248 137.152C144.628 136.735 144.145 136.142 143.859 135.449C143.574 134.756 143.499 133.993 143.645 133.257C143.79 132.522 144.149 131.846 144.677 131.315C145.204 130.785 145.876 130.423 146.608 130.277C147.339 130.131 148.097 130.206 148.787 130.493C149.476 130.78 150.065 131.266 150.479 131.89C150.893 132.514 151.115 133.247 151.115 133.998C151.115 135.004 150.717 135.968 150.01 136.68C149.303 137.391 148.344 137.791 147.343 137.791V137.791ZM147.343 131.608C146.869 131.612 146.406 131.757 146.014 132.026C145.621 132.294 145.317 132.674 145.138 133.116C144.96 133.558 144.916 134.044 145.011 134.511C145.107 134.979 145.338 135.407 145.675 135.743C146.013 136.079 146.442 136.306 146.907 136.397C147.373 136.488 147.855 136.438 148.293 136.254C148.731 136.069 149.104 135.759 149.367 135.361C149.629 134.963 149.769 134.497 149.768 134.019C149.767 133.7 149.704 133.385 149.581 133.091C149.459 132.797 149.28 132.53 149.054 132.306C148.829 132.082 148.562 131.905 148.268 131.785C147.975 131.665 147.66 131.605 147.343 131.608V131.608Z" fill="black"/>
</g>
<defs>
<linearGradient id="paint0_linear_140_1504" x1="11.5967" y1="164.797" x2="97.0012" y2="168.001" gradientUnits="userSpaceOnUse">
<stop stop-color="#9CD8FF" stop-opacity="0"/>
<stop offset="1" stop-color="#99CCFF"/>
</linearGradient>
<linearGradient id="paint1_linear_140_1504" x1="54.865" y1="160.565" x2="123.917" y2="162.526" gradientUnits="userSpaceOnUse">
<stop stop-color="#95DBFF"/>
<stop offset="1" stop-color="#A1D0FF" stop-opacity="0"/>
</linearGradient>
<clipPath id="clip0_140_1504">
<rect width="192" height="233" fill="white" transform="translate(187)"/>
</clipPath>
<clipPath id="clip1_140_1504">
<rect width="206" height="145" fill="white" transform="translate(0 88)"/>
</clipPath>
</defs>
</svg>
