<svg width="111" height="85" viewBox="0 0 111 85" fill="none" xmlns="http://www.w3.org/2000/svg">
<path fill-rule="evenodd" clip-rule="evenodd" d="M0.617188 0.104492H13.2078C17.1396 0.104492 21.033 0.878927 24.6655 2.38358C28.2981 3.88823 31.5987 6.09364 34.3789 8.87387C37.1591 11.6541 39.3646 14.9547 40.8692 18.5873C42.3739 22.2198 43.1483 26.1132 43.1483 30.045V32.5762H0.617188V0.104492ZM1.61719 1.10449V31.5762H42.1483V30.045C42.1483 26.2445 41.3997 22.4812 39.9453 18.97C38.4909 15.4587 36.3592 12.2684 33.6718 9.58098C30.9844 6.8936 27.7941 4.76186 24.2828 3.30746C20.7716 1.85306 17.0083 1.10449 13.2078 1.10449H1.61719Z" fill="#1D1D1B"/>
<path fill-rule="evenodd" clip-rule="evenodd" d="M49.6298 33.6653C47.8572 32.934 45.9575 32.5599 44.0399 32.5645L44.0387 32.5645H1.61719V67.5944H54.5212C55.6135 67.5944 56.6611 67.1605 57.4335 66.3881C58.2059 65.6157 58.6398 64.5681 58.6398 63.4758V47.1535C58.6429 45.2359 58.2673 43.3358 57.5345 41.5637C56.8018 39.7916 55.7263 38.1817 54.3698 36.8263C53.0133 35.4709 51.4025 34.3967 49.6298 33.6653ZM44.0381 31.5645C46.0872 31.5596 48.117 31.9594 50.0112 32.7409C51.9056 33.5225 53.627 34.6704 55.0766 36.1189C56.5262 37.5674 57.6756 39.2878 58.4586 41.1816C59.2417 43.0753 59.6431 45.1051 59.6398 47.1543V63.4758C59.6398 64.8333 59.1005 66.1353 58.1406 67.0952C57.1807 68.0551 55.8788 68.5944 54.5212 68.5944H0.617188V31.5645H44.0381Z" fill="#1D1D1B"/>
<path d="M49.2628 68.1064V80.0519C49.2628 81.092 48.8505 82.0896 48.1162 82.8262C47.3819 83.5628 46.3855 83.9782 45.3454 83.9814H39.3002C38.2601 83.9782 37.2637 83.5628 36.5294 82.8262C35.7951 82.0896 35.3828 81.092 35.3828 80.0519V68.1064" fill="#1D1D1B"/>
<path d="M45.9258 50.9619H39.3485C37.1583 50.9619 35.3828 52.7374 35.3828 54.9276C35.3828 57.1178 37.1583 58.8933 39.3485 58.8933H45.9258C48.116 58.8933 49.8915 57.1178 49.8915 54.9276C49.8915 52.7374 48.116 50.9619 45.9258 50.9619Z" fill="#1D1D1B"/>
<path fill-rule="evenodd" clip-rule="evenodd" d="M78.413 1.10449C75.8879 1.10449 74.0768 2.71616 74.0768 4.49765V46.1859C74.0768 48.7115 71.5559 50.5791 68.7405 50.5791H59.1406V49.5791H68.7405C71.2208 49.5791 73.0768 47.9646 73.0768 46.1859V4.49765C73.0768 1.97491 75.5457 0.104492 78.413 0.104492H86.8764C89.6788 0.104492 92.2126 1.97139 92.2126 4.49765V15.3792H91.2126V4.49765C91.2126 2.71968 89.3454 1.10449 86.8764 1.10449H78.413Z" fill="#1D1D1B"/>
<path d="M91.6146 14.5088C88.5746 14.512 85.6598 15.7202 83.5091 17.8687C81.3583 20.0172 80.147 22.9306 80.1406 25.9706V37.9645H93.6095V36.7554H81.3497V25.9586C81.3497 23.2329 82.4324 20.6189 84.3597 18.6916C86.287 16.7643 88.901 15.6816 91.6267 15.6816C94.3523 15.6816 96.9663 16.7643 98.8936 18.6916C100.821 20.6189 101.904 23.2329 101.904 25.9586V36.7554H97.5631V37.9645H103.064V25.9465C103.058 22.9129 101.849 20.0055 99.703 17.8616C97.5568 15.7177 94.6482 14.512 91.6146 14.5088Z" fill="#1D1D1B"/>
<path d="M89.6081 36.7549V42.6188C89.6294 42.8914 89.5942 43.1655 89.5045 43.4238C89.4148 43.6821 89.2727 43.9191 89.0871 44.1198C88.9014 44.3205 88.6763 44.4807 88.4257 44.5903C88.1752 44.6998 87.9047 44.7564 87.6313 44.7564C87.3579 44.7564 87.0874 44.6998 86.8369 44.5903C86.5863 44.4807 86.3612 44.3205 86.1755 44.1198C85.9899 43.9191 85.8478 43.6821 85.7581 43.4238C85.6684 43.1655 85.6331 42.8914 85.6545 42.6188V36.7549H89.6081Z" fill="#1D1D1B"/>
<path d="M97.5634 36.7549V42.6188C97.5634 43.1447 97.3545 43.649 96.9826 44.0209C96.6107 44.3928 96.1064 44.6017 95.5805 44.6017C95.0546 44.6017 94.5503 44.3928 94.1784 44.0209C93.8066 43.649 93.5977 43.1447 93.5977 42.6188V36.7549H97.5634Z" fill="#1D1D1B"/>
<path d="M1.11719 63.8379H22.2757C23.4219 63.9044 24.5481 63.5165 25.4104 62.7584C26.2726 62.0003 26.8014 60.9329 26.8822 59.7876V52.7872C26.8014 51.6419 26.2726 50.5745 25.4104 49.8164C24.5481 49.0582 23.4219 48.6704 22.2757 48.7368H1.11719" fill="#1D1D1B"/>
<path fill-rule="evenodd" clip-rule="evenodd" d="M79.3562 62.2949C76.2869 62.2949 73.7988 64.783 73.7988 67.8523V77.9116C73.7988 80.9809 76.2869 83.469 79.3562 83.469H103.852C106.921 83.469 109.409 80.9809 109.409 77.9116V67.8523C109.409 64.783 106.921 62.2949 103.852 62.2949H79.3562ZM72.7988 67.8523C72.7988 64.2308 75.7347 61.2949 79.3562 61.2949H103.852C107.473 61.2949 110.409 64.2308 110.409 67.8523V77.9116C110.409 81.5332 107.473 84.469 103.852 84.469H79.3562C75.7347 84.469 72.7988 81.5332 72.7988 77.9116V67.8523Z" fill="#1D1D1B"/>
<path d="M85.7746 76.4125C87.7244 76.4125 89.305 74.8318 89.305 72.882C89.305 70.9322 87.7244 69.3516 85.7746 69.3516C83.8248 69.3516 82.2441 70.9322 82.2441 72.882C82.2441 74.8318 83.8248 76.4125 85.7746 76.4125Z" fill="#1D1D1B"/>
<path d="M97.4308 76.4125C99.3807 76.4125 100.961 74.8318 100.961 72.882C100.961 70.9322 99.3807 69.3516 97.4308 69.3516C95.481 69.3516 93.9004 70.9322 93.9004 72.882C93.9004 74.8318 95.481 76.4125 97.4308 76.4125Z" fill="#1D1D1B"/>
</svg>
