<svg width="58" height="58" viewBox="0 0 58 58" fill="none" xmlns="http://www.w3.org/2000/svg">
<path d="M29.0002 0.200195C13.0942 0.200195 0.200195 13.0942 0.200195 29.0002C0.200195 44.9062 13.0942 57.8002 29.0002 57.8002C44.9062 57.8002 57.8002 44.9062 57.8002 29.0002C57.8002 13.0942 44.9062 0.200195 29.0002 0.200195ZM21.9502 40.9372H16.1182V22.1692H21.9502V40.9372ZM18.9982 19.8652C17.1562 19.8652 15.9652 18.5602 15.9652 16.9462C15.9652 15.2992 17.1922 14.0332 19.0732 14.0332C20.9542 14.0332 22.1062 15.2992 22.1422 16.9462C22.1422 18.5602 20.9542 19.8652 18.9982 19.8652ZM43.2502 40.9372H37.4182V30.5362C37.4182 28.1152 36.5722 26.4712 34.4632 26.4712C32.8522 26.4712 31.8952 27.5842 31.4722 28.6552C31.3162 29.0362 31.2772 29.5762 31.2772 30.1132V40.9342H25.4422V28.1542C25.4422 25.8112 25.3672 23.8522 25.2892 22.1662H30.3562L30.6232 24.7732H30.7402C31.5082 23.5492 33.3892 21.7432 36.5362 21.7432C40.3732 21.7432 43.2502 24.3142 43.2502 29.8402V40.9372Z" fill="#3375B0"/>
</svg>
