<svg width="24" height="24" viewBox="0 0 24 24" fill="none" xmlns="http://www.w3.org/2000/svg">
<path d="M11.3991 0.00349227C9.47309 0.0267423 5.33234 0.343242 3.01634 2.46799C1.29359 4.17499 0.692093 6.69874 0.621593 9.81949C0.563093 12.929 0.492593 18.7685 6.12134 20.3585V22.7802C6.12134 22.7802 6.08609 23.7492 6.72659 23.948C7.51559 24.1977 7.96484 23.4522 8.71484 22.6512L10.1136 21.0695C13.9648 21.3897 16.9146 20.6517 17.2543 20.5422C18.0358 20.2925 22.4376 19.73 23.1568 13.8897C23.8948 7.85824 22.7976 4.05799 20.8168 2.33899H20.8048C20.2071 1.78849 17.8048 0.0379923 12.4378 0.0184923C12.4378 0.0184923 12.0396 -0.00850773 11.3991 0.00274227V0.00349227ZM11.4651 1.69924C12.0118 1.69549 12.3441 1.71874 12.3441 1.71874C16.8868 1.73074 19.0551 3.09799 19.5666 3.55849C21.2346 4.98799 22.0941 8.41399 21.4648 13.4495C20.8671 18.332 17.2971 18.641 16.6363 18.8517C16.3551 18.9417 13.7571 19.5822 10.4841 19.3715C10.4841 19.3715 8.04659 22.313 7.28459 23.0705C7.16384 23.2032 7.02284 23.2422 6.93284 23.2227C6.80384 23.1912 6.76484 23.0315 6.77234 22.8125L6.79559 18.7932C2.02184 17.4732 2.30309 12.4925 2.35409 9.89074C2.41259 7.28899 2.90084 5.16049 4.35434 3.71899C6.31109 1.94974 9.82709 1.71124 11.4636 1.69924H11.4651ZM11.8251 4.30024C11.7858 4.29985 11.7468 4.30723 11.7104 4.32197C11.674 4.33671 11.6408 4.35851 11.6129 4.38612C11.5849 4.41373 11.5627 4.4466 11.5475 4.48283C11.5323 4.51907 11.5244 4.55795 11.5243 4.59724C11.5243 4.76524 11.6608 4.89799 11.8251 4.89799C12.5687 4.88385 13.3078 5.01707 13.9997 5.28996C14.6916 5.56286 15.3226 5.97003 15.8563 6.48799C16.9461 7.54624 17.4771 8.96824 17.4973 10.8275C17.4973 10.9917 17.6301 11.1282 17.7981 11.1282V11.1162C17.8773 11.1164 17.9533 11.0853 18.0097 11.0297C18.066 10.9741 18.0981 10.8984 18.0988 10.8192C18.1353 9.9441 17.9933 9.0707 17.6817 8.25212C17.3701 7.43353 16.8953 6.68686 16.2861 6.05749C15.0988 4.89724 13.5943 4.29949 11.8251 4.29949V4.30024ZM7.87184 4.98799C7.65955 4.95697 7.44304 4.99959 7.25834 5.10874H7.24259C6.81379 5.3601 6.4275 5.67778 6.09809 6.04999C5.82434 6.36649 5.67584 6.68674 5.63684 6.99499C5.61359 7.17874 5.62934 7.36249 5.68409 7.53799L5.70359 7.54999C6.01184 8.45599 6.41459 9.32749 6.90659 10.148C7.54036 11.3007 8.32031 12.3668 9.22709 13.3197L9.25409 13.3587L9.29684 13.3902L9.32384 13.4217L9.35534 13.4487C10.3118 14.3582 11.3804 15.1418 12.5353 15.7805C13.8553 16.499 14.6563 16.8387 15.1371 16.9797V16.9872C15.2781 17.03 15.4063 17.0495 15.5353 17.0495C15.9451 17.0195 16.3329 16.8531 16.6371 16.577C17.0076 16.2475 17.3218 15.8596 17.5671 15.4287V15.4212C17.7973 14.9877 17.7193 14.5775 17.3871 14.3C16.7217 13.7184 16.0022 13.2018 15.2383 12.7572C14.7268 12.4797 14.2071 12.6477 13.9963 12.929L13.5471 13.4952C13.3168 13.7765 12.8983 13.7375 12.8983 13.7375L12.8863 13.745C9.76559 12.9477 8.93309 9.78799 8.93309 9.78799C8.93309 9.78799 8.89409 9.35824 9.18284 9.13924L9.74534 8.68624C10.0146 8.46724 10.2021 7.94824 9.91334 7.43599C9.47189 6.67111 8.95642 5.95141 8.37434 5.28724C8.24709 5.13066 8.06857 5.02413 7.87034 4.98649L7.87184 4.98799ZM12.3441 5.87899C11.9458 5.87899 11.9458 6.48049 12.3478 6.48049C12.8431 6.48853 13.3318 6.59407 13.7862 6.79109C14.2406 6.98812 14.6518 7.27275 14.9961 7.62874C15.3102 7.97525 15.5516 8.38128 15.7059 8.82277C15.8603 9.26427 15.9244 9.73225 15.8946 10.199C15.896 10.278 15.9282 10.3533 15.9844 10.4088C16.0406 10.4643 16.1163 10.4956 16.1953 10.496L16.2073 10.5117C16.2869 10.5112 16.3631 10.4793 16.4194 10.423C16.4756 10.3667 16.5075 10.2906 16.5081 10.211C16.5351 9.01924 16.1646 8.01949 15.4378 7.21849C14.7073 6.41749 13.6881 5.96824 12.3868 5.87899H12.3441ZM12.8368 7.49599C12.4266 7.48399 12.4108 8.09749 12.8173 8.10949C13.8058 8.16049 14.2858 8.65999 14.3488 9.68749C14.3502 9.76549 14.3821 9.83985 14.4376 9.89465C14.4931 9.94946 14.5678 9.98036 14.6458 9.98074H14.6578C14.6979 9.97902 14.7373 9.96933 14.7736 9.95224C14.8099 9.93514 14.8425 9.91098 14.8694 9.88117C14.8963 9.85136 14.9169 9.81649 14.9302 9.7786C14.9434 9.74071 14.949 9.70056 14.9466 9.66049C14.8761 8.32099 14.1456 7.56649 12.8488 7.49674H12.8368V7.49599Z" fill="#5200B7"/>
</svg>
