<svg width="24" height="24" viewBox="0 0 24 24" fill="none" xmlns="http://www.w3.org/2000/svg">
<g clip-path="url(#clip0_1303_4267)">
<path d="M6.34341 20.555L6.73575 20.749C8.37075 21.7185 10.2018 22.171 12.0329 22.171C17.7878 22.171 22.4963 17.517 22.4963 11.8288C22.4963 9.11407 21.3845 6.46387 19.4227 4.52469C17.4608 2.58551 14.8448 1.4867 12.0329 1.4867C6.27806 1.4867 1.56947 6.14066 1.63491 11.8935C1.63491 13.8326 2.22347 15.7072 3.20438 17.3231L3.46594 17.711L2.41969 21.5247L6.34341 20.555Z" fill="#00E676"/>
<path d="M20.5343 3.49047C18.3109 1.22817 15.2373 0 12.0983 0C5.42794 0 0.0654375 5.36497 0.130781 11.8934C0.130781 13.9619 0.719344 15.9657 1.70034 17.7756L0 23.9162L6.34341 22.3003C8.10909 23.2699 10.0709 23.7224 12.0329 23.7224C18.6379 23.7224 24.0004 18.3573 24.0004 11.8289C24.0004 8.66159 22.7577 5.68818 20.5343 3.49047ZM12.0983 21.7186C10.3326 21.7186 8.56688 21.2662 7.06275 20.3613L6.67041 20.1673L2.87747 21.1369L3.85837 17.4525L3.59681 17.0646C0.719344 12.4754 2.09269 6.3992 6.80119 3.55506C11.5097 0.711012 17.5915 2.06845 20.469 6.72241C23.3464 11.3764 21.973 17.3878 17.2646 20.2319C15.7604 21.2015 13.9294 21.7186 12.0983 21.7186Z" fill="#00E676"/>
<path d="M17.9462 15.2965L18.7742 15.6745C18.9247 15.75 19 15.8256 19 15.8256V16.3547L18.9997 16.3563C18.9245 16.7336 18.8493 17.1109 18.699 17.4128C18.6236 17.564 18.4731 17.7152 18.3226 17.8663C18.1721 18.0175 18.0215 18.093 17.871 18.2441L17.7204 18.3954C17.5699 18.5465 17.4193 18.5465 17.1936 18.6977C16.8924 18.8488 16.4409 19 16.0645 19H15.3119C15.086 18.9244 14.785 18.9244 14.5591 18.8488C12.5269 18.3198 10.7205 17.3372 9.13981 15.9767C8.98929 15.75 8.76345 15.5988 8.53771 15.3721L8.23666 15.0698C7.03225 13.9361 6.1291 12.6511 5.45168 11.2152L5.37637 10.9884C5.15052 10.4593 5 9.8546 5 9.25C5 8.41862 5.30105 7.58724 5.82794 6.90701C5.97847 6.75575 6.05378 6.60471 6.20431 6.45345C6.35483 6.37793 6.50536 6.22678 6.65588 6.15115L6.7312 6.07563C6.88183 6.07563 7.03225 6 7.18288 6H8.01082C8.23666 6.07563 8.38708 6.15115 8.53771 6.37793C8.76345 6.83138 9.6667 8.87207 9.74191 9.25C9.81723 9.47678 9.74191 9.77908 9.59139 10.0059C9.44086 10.157 9.36565 10.3837 9.21502 10.5349C8.98929 10.7616 8.68824 11.1395 8.68824 11.1395C8.61292 11.2152 8.61292 11.3663 8.61292 11.5175C8.68824 11.6686 8.68824 11.7441 8.76345 11.8198L8.83876 11.9709C9.21502 12.6512 9.74191 13.2559 10.2688 13.7849C10.4193 13.9361 10.6452 14.0872 10.7957 14.2384C11.3979 14.843 12.1505 15.2965 12.9785 15.6745L13.3548 15.8256C13.4301 15.9012 13.5807 15.9768 13.6559 15.9768H13.7312C13.8817 15.9768 14.0322 15.9011 14.1076 15.75C15.1613 14.5407 15.2366 14.4652 15.2366 14.4652C15.3871 14.3895 15.5376 14.3139 15.7634 14.3139C15.8388 14.3139 15.914 14.3895 15.9893 14.3895C16.742 14.7675 17.9462 15.2965 17.9462 15.2965Z" fill="white"/>
</g>
<defs>
<clipPath id="clip0_1303_4267">
<rect width="24" height="24" fill="white"/>
</clipPath>
</defs>
</svg>
